<svg xmlns="http://www.w3.org/2000/svg" xmlns:xlink="http://www.w3.org/1999/xlink" width="465" zoomAndPan="magnify" viewBox="0 0 348.75 149.999998" height="200" preserveAspectRatio="xMidYMid meet" version="1.0"><defs><clipPath id="f2656deefa"><path d="M 101.367188 102 L 113 102 L 113 118 L 101.367188 118 Z M 101.367188 102 " clip-rule="nonzero"/></clipPath><clipPath id="19e78f8323"><path d="M 236 102 L 247.617188 102 L 247.617188 118 L 236 118 Z M 236 102 " clip-rule="nonzero"/></clipPath><clipPath id="f7156b1eff"><path d="M 111 124 L 120 124 L 120 135.054688 L 111 135.054688 Z M 111 124 " clip-rule="nonzero"/></clipPath><clipPath id="f0ca7da5d0"><path d="M 121 124 L 129 124 L 129 135.054688 L 121 135.054688 Z M 121 124 " clip-rule="nonzero"/></clipPath><clipPath id="5452cf78c5"><path d="M 146 124 L 154 124 L 154 135.054688 L 146 135.054688 Z M 146 124 " clip-rule="nonzero"/></clipPath><clipPath id="899f0c53cc"><path d="M 155 124 L 163 124 L 163 135.054688 L 155 135.054688 Z M 155 124 " clip-rule="nonzero"/></clipPath><clipPath id="8d47569add"><path d="M 164 124 L 173 124 L 173 135.054688 L 164 135.054688 Z M 164 124 " clip-rule="nonzero"/></clipPath><clipPath id="3d336478af"><path d="M 178 124 L 186 124 L 186 135.054688 L 178 135.054688 Z M 178 124 " clip-rule="nonzero"/></clipPath><clipPath id="32649bf65c"><path d="M 187 124 L 195 124 L 195 135.054688 L 187 135.054688 Z M 187 124 " clip-rule="nonzero"/></clipPath><clipPath id="9e2c9e01a5"><path d="M 220 124 L 229 124 L 229 135.054688 L 220 135.054688 Z M 220 124 " clip-rule="nonzero"/></clipPath><clipPath id="0e922e383e"><path d="M 230 124 L 238 124 L 238 135.054688 L 230 135.054688 Z M 230 124 " clip-rule="nonzero"/></clipPath><clipPath id="6db35f6871"><path d="M 239 124 L 247.617188 124 L 247.617188 135.054688 L 239 135.054688 Z M 239 124 " clip-rule="nonzero"/></clipPath><clipPath id="6675f8ca56"><path d="M 101.367188 15.054688 L 147 15.054688 L 147 74 L 101.367188 74 Z M 101.367188 15.054688 " clip-rule="nonzero"/></clipPath><clipPath id="fbb415bb80"><path d="M 202 15.054688 L 246 15.054688 L 246 75 L 202 75 Z M 202 15.054688 " clip-rule="nonzero"/></clipPath><clipPath id="7a55f49ed4"><path d="M 101.367188 15.054688 L 113 15.054688 L 113 49 L 101.367188 49 Z M 101.367188 15.054688 " clip-rule="nonzero"/></clipPath><clipPath id="e0178dc30a"><path d="M 101.367188 86 L 247.617188 86 L 247.617188 91 L 101.367188 91 Z M 101.367188 86 " clip-rule="nonzero"/></clipPath></defs><g clip-path="url(#f2656deefa)"><path fill="#4e4d50" d="M 110.507812 110.039062 C 112 110.75 112.734375 111.957031 112.734375 113.683594 C 112.734375 116.597656 110.53125 117.992188 107.664062 117.992188 L 102.140625 117.992188 C 101.925781 117.992188 101.785156 117.851562 101.785156 117.636719 L 101.785156 102.824219 C 101.785156 102.609375 101.925781 102.46875 102.140625 102.46875 L 107.472656 102.46875 C 110.601562 102.46875 112.523438 103.769531 112.523438 106.65625 C 112.523438 108.21875 111.8125 109.261719 110.53125 109.875 C 110.414062 109.921875 110.414062 110.015625 110.53125 110.039062 Z M 104.367188 104.8125 L 104.367188 108.859375 C 104.367188 108.859375 104.417969 109 104.511719 109 L 107.472656 109 C 109.039062 109 110.011719 108.195312 110.011719 106.871094 C 110.011719 105.542969 109.0625 104.667969 107.472656 104.667969 L 104.511719 104.667969 C 104.511719 104.667969 104.367188 104.714844 104.367188 104.8125 Z M 110.152344 113.425781 C 110.152344 111.980469 109.179688 111.128906 107.59375 111.128906 L 104.488281 111.128906 C 104.488281 111.128906 104.34375 111.175781 104.34375 111.269531 L 104.34375 115.625 C 104.34375 115.625 104.394531 115.769531 104.488281 115.769531 L 107.640625 115.769531 C 109.203125 115.769531 110.152344 114.890625 110.152344 113.472656 Z M 110.152344 113.425781 " fill-opacity="1" fill-rule="nonzero"/></g><path fill="#4e4d50" d="M 127.074219 104.667969 L 119.609375 104.667969 C 119.609375 104.667969 119.46875 104.714844 119.46875 104.8125 L 119.46875 108.90625 C 119.46875 108.90625 119.515625 109.046875 119.609375 109.046875 L 124.585938 109.046875 C 124.800781 109.046875 124.941406 109.1875 124.941406 109.402344 L 124.941406 110.917969 C 124.941406 111.128906 124.800781 111.269531 124.585938 111.269531 L 119.609375 111.269531 C 119.609375 111.269531 119.46875 111.320312 119.46875 111.414062 L 119.46875 115.648438 C 119.46875 115.648438 119.515625 115.792969 119.609375 115.792969 L 127.074219 115.792969 C 127.289062 115.792969 127.429688 115.933594 127.429688 116.144531 L 127.429688 117.660156 C 127.429688 117.875 127.289062 118.015625 127.074219 118.015625 L 117.261719 118.015625 C 117.050781 118.015625 116.90625 117.875 116.90625 117.660156 L 116.90625 102.847656 C 116.90625 102.632812 117.050781 102.492188 117.261719 102.492188 L 127.074219 102.492188 C 127.289062 102.492188 127.429688 102.632812 127.429688 102.847656 L 127.429688 104.363281 C 127.429688 104.574219 127.289062 104.714844 127.074219 104.714844 Z M 127.074219 104.667969 " fill-opacity="1" fill-rule="nonzero"/><path fill="#4e4d50" d="M 141.867188 102.824219 L 141.867188 104.363281 C 141.867188 104.574219 141.722656 104.714844 141.511719 104.714844 L 137.527344 104.714844 C 137.527344 104.714844 137.386719 104.765625 137.386719 104.859375 L 137.386719 117.636719 C 137.386719 117.851562 137.242188 117.992188 137.03125 117.992188 L 135.15625 117.992188 C 134.945312 117.992188 134.800781 117.851562 134.800781 117.636719 L 134.800781 104.859375 C 134.800781 104.859375 134.753906 104.714844 134.660156 104.714844 L 130.84375 104.714844 C 130.628906 104.714844 130.488281 104.574219 130.488281 104.363281 L 130.488281 102.824219 C 130.488281 102.609375 130.628906 102.46875 130.84375 102.46875 L 141.484375 102.46875 C 141.699219 102.46875 141.839844 102.609375 141.839844 102.824219 Z M 141.867188 102.824219 " fill-opacity="1" fill-rule="nonzero"/><path fill="#4e4d50" d="M 155.730469 104.667969 L 148.265625 104.667969 C 148.265625 104.667969 148.121094 104.714844 148.121094 104.8125 L 148.121094 108.90625 C 148.121094 108.90625 148.171875 109.046875 148.265625 109.046875 L 153.242188 109.046875 C 153.457031 109.046875 153.597656 109.1875 153.597656 109.402344 L 153.597656 110.917969 C 153.597656 111.128906 153.457031 111.269531 153.242188 111.269531 L 148.265625 111.269531 C 148.265625 111.269531 148.121094 111.320312 148.121094 111.414062 L 148.121094 115.648438 C 148.121094 115.648438 148.171875 115.792969 148.265625 115.792969 L 155.730469 115.792969 C 155.945312 115.792969 156.085938 115.933594 156.085938 116.144531 L 156.085938 117.660156 C 156.085938 117.875 155.945312 118.015625 155.730469 118.015625 L 145.917969 118.015625 C 145.707031 118.015625 145.5625 117.875 145.5625 117.660156 L 145.5625 102.847656 C 145.5625 102.632812 145.707031 102.492188 145.917969 102.492188 L 155.730469 102.492188 C 155.945312 102.492188 156.085938 102.632812 156.085938 102.847656 L 156.085938 104.363281 C 156.085938 104.574219 155.945312 104.714844 155.730469 104.714844 Z M 155.730469 104.667969 " fill-opacity="1" fill-rule="nonzero"/><path fill="#4e4d50" d="M 160.042969 117.613281 L 160.042969 102.800781 C 160.042969 102.585938 160.1875 102.445312 160.398438 102.445312 L 162.179688 102.445312 C 162.34375 102.445312 162.535156 102.539062 162.628906 102.679688 L 168.839844 112.832031 C 168.839844 112.832031 169.003906 112.929688 169.003906 112.785156 L 169.003906 102.800781 C 169.003906 102.585938 169.144531 102.445312 169.359375 102.445312 L 171.230469 102.445312 C 171.445312 102.445312 171.585938 102.585938 171.585938 102.800781 L 171.585938 117.613281 C 171.585938 117.828125 171.445312 117.96875 171.230469 117.96875 L 169.40625 117.96875 C 169.242188 117.96875 169.050781 117.875 168.957031 117.730469 L 162.746094 107.507812 C 162.746094 107.507812 162.582031 107.414062 162.582031 107.554688 L 162.582031 117.613281 C 162.582031 117.851562 162.460938 117.96875 162.25 117.96875 L 160.398438 117.96875 C 160.1875 117.96875 160.042969 117.828125 160.042969 117.613281 Z M 160.042969 117.613281 " fill-opacity="1" fill-rule="nonzero"/><path fill="#4e4d50" d="M 184.648438 110.039062 C 186.140625 110.75 186.875 111.957031 186.875 113.683594 C 186.875 116.597656 184.671875 117.992188 181.804688 117.992188 L 176.304688 117.992188 C 176.089844 117.992188 175.949219 117.851562 175.949219 117.636719 L 175.949219 102.824219 C 175.949219 102.609375 176.089844 102.46875 176.304688 102.46875 L 181.636719 102.46875 C 184.765625 102.46875 186.6875 103.769531 186.6875 106.65625 C 186.6875 108.21875 185.976562 109.261719 184.695312 109.875 C 184.578125 109.921875 184.578125 110.015625 184.695312 110.039062 Z M 178.507812 104.8125 L 178.507812 108.859375 C 178.507812 108.859375 178.554688 109 178.652344 109 L 181.613281 109 C 183.179688 109 184.148438 108.195312 184.148438 106.871094 C 184.148438 105.542969 183.203125 104.667969 181.613281 104.667969 L 178.652344 104.667969 C 178.652344 104.667969 178.507812 104.714844 178.507812 104.8125 Z M 184.292969 113.425781 C 184.292969 111.980469 183.320312 111.128906 181.730469 111.128906 L 178.628906 111.128906 C 178.628906 111.128906 178.484375 111.175781 178.484375 111.269531 L 178.484375 115.625 C 178.484375 115.625 178.53125 115.769531 178.628906 115.769531 L 181.78125 115.769531 C 183.34375 115.769531 184.292969 114.890625 184.292969 113.472656 Z M 184.292969 113.425781 " fill-opacity="1" fill-rule="nonzero"/><path fill="#4e4d50" d="M 190.667969 112.738281 L 190.667969 107.675781 C 190.667969 104.433594 192.941406 102.277344 196.308594 102.277344 C 199.675781 102.277344 201.972656 104.457031 201.972656 107.675781 L 201.972656 112.738281 C 201.972656 116.027344 199.699219 118.179688 196.308594 118.179688 C 192.917969 118.179688 190.667969 116.003906 190.667969 112.738281 Z M 199.390625 112.832031 L 199.390625 107.675781 C 199.390625 105.757812 198.15625 104.503906 196.308594 104.503906 C 194.460938 104.503906 193.25 105.757812 193.25 107.675781 L 193.25 112.832031 C 193.25 114.75 194.484375 115.980469 196.308594 115.980469 C 198.132812 115.980469 199.390625 114.75 199.390625 112.832031 Z M 199.390625 112.832031 " fill-opacity="1" fill-rule="nonzero"/><path fill="#4e4d50" d="M 206.027344 112.929688 L 206.027344 102.800781 C 206.027344 102.585938 206.167969 102.445312 206.382812 102.445312 L 208.253906 102.445312 C 208.46875 102.445312 208.609375 102.585938 208.609375 102.800781 L 208.609375 112.976562 C 208.609375 114.726562 209.820312 115.933594 211.597656 115.933594 C 213.375 115.933594 214.582031 114.726562 214.582031 112.976562 L 214.582031 102.800781 C 214.582031 102.585938 214.726562 102.445312 214.9375 102.445312 L 216.8125 102.445312 C 217.023438 102.445312 217.167969 102.585938 217.167969 102.800781 L 217.167969 112.929688 C 217.167969 116.074219 214.9375 118.132812 211.597656 118.132812 C 208.253906 118.132812 206.027344 116.074219 206.027344 112.929688 Z M 206.027344 112.929688 " fill-opacity="1" fill-rule="nonzero"/><path fill="#4e4d50" d="M 221.03125 112.902344 L 221.03125 107.53125 C 221.03125 104.363281 223.257812 102.277344 226.601562 102.277344 C 229.941406 102.277344 232.121094 104.386719 232.121094 107.175781 L 232.121094 107.273438 C 232.121094 107.484375 231.980469 107.628906 231.765625 107.628906 L 229.917969 107.628906 C 229.703125 107.628906 229.5625 107.53125 229.5625 107.4375 L 229.5625 107.273438 C 229.5625 105.710938 228.402344 104.527344 226.601562 104.527344 C 224.796875 104.527344 223.613281 105.710938 223.613281 107.484375 L 223.613281 113.023438 C 223.613281 114.796875 224.894531 115.980469 226.71875 115.980469 C 228.542969 115.980469 229.585938 115.011719 229.585938 113.378906 L 229.585938 112.027344 C 229.585938 112.027344 229.539062 111.886719 229.445312 111.886719 L 226.835938 111.886719 C 226.625 111.886719 226.480469 111.746094 226.480469 111.53125 L 226.480469 110.066406 C 226.480469 109.851562 226.625 109.710938 226.835938 109.710938 L 231.789062 109.710938 C 232.003906 109.710938 232.144531 109.851562 232.144531 110.066406 L 232.144531 112.808594 C 232.144531 116.265625 229.941406 118.203125 226.625 118.203125 C 223.304688 118.203125 221.054688 116.097656 221.054688 112.953125 Z M 221.03125 112.902344 " fill-opacity="1" fill-rule="nonzero"/><g clip-path="url(#19e78f8323)"><path fill="#4e4d50" d="M 244.992188 102.46875 L 246.863281 102.46875 C 247.078125 102.46875 247.21875 102.609375 247.21875 102.824219 L 247.21875 117.636719 C 247.21875 117.851562 247.078125 117.992188 246.863281 117.992188 L 244.992188 117.992188 C 244.777344 117.992188 244.636719 117.851562 244.636719 117.636719 L 244.636719 111.414062 C 244.636719 111.414062 244.589844 111.269531 244.496094 111.269531 L 238.878906 111.269531 C 238.878906 111.269531 238.734375 111.320312 238.734375 111.414062 L 238.734375 117.636719 C 238.734375 117.851562 238.59375 117.992188 238.378906 117.992188 L 236.507812 117.992188 C 236.292969 117.992188 236.152344 117.851562 236.152344 117.636719 L 236.152344 102.824219 C 236.152344 102.609375 236.292969 102.46875 236.507812 102.46875 L 238.378906 102.46875 C 238.59375 102.46875 238.734375 102.609375 238.734375 102.824219 L 238.734375 108.929688 C 238.734375 108.929688 238.78125 109.070312 238.878906 109.070312 L 244.496094 109.070312 C 244.496094 109.070312 244.636719 109.023438 244.636719 108.929688 L 244.636719 102.824219 C 244.636719 102.609375 244.777344 102.46875 244.992188 102.46875 Z M 244.992188 102.46875 " fill-opacity="1" fill-rule="nonzero"/></g><path fill="#4e4d50" d="M 107.828125 129.753906 C 108.800781 130.226562 109.273438 131.007812 109.273438 132.121094 C 109.273438 134.011719 107.851562 134.910156 105.957031 134.910156 L 102.355469 134.910156 C 102.210938 134.910156 102.117188 134.816406 102.117188 134.675781 L 102.117188 125.019531 C 102.117188 124.878906 102.210938 124.785156 102.355469 124.785156 L 105.839844 124.785156 C 107.875 124.785156 109.132812 125.636719 109.132812 127.503906 C 109.132812 128.523438 108.660156 129.207031 107.828125 129.609375 C 107.757812 129.632812 107.757812 129.707031 107.828125 129.730469 Z M 103.824219 126.34375 L 103.824219 128.996094 C 103.824219 128.996094 103.847656 129.089844 103.917969 129.089844 L 105.863281 129.089844 C 106.882812 129.089844 107.519531 128.570312 107.519531 127.695312 C 107.519531 126.820312 106.90625 126.273438 105.863281 126.273438 L 103.917969 126.273438 C 103.917969 126.273438 103.824219 126.296875 103.824219 126.367188 Z M 107.59375 131.976562 C 107.59375 131.03125 106.953125 130.464844 105.933594 130.464844 L 103.917969 130.464844 C 103.917969 130.464844 103.824219 130.488281 103.824219 130.558594 L 103.824219 133.398438 C 103.824219 133.398438 103.847656 133.492188 103.917969 133.492188 L 105.980469 133.492188 C 107 133.492188 107.617188 132.925781 107.617188 132 Z M 107.59375 131.976562 " fill-opacity="1" fill-rule="nonzero"/><g clip-path="url(#f7156b1eff)"><path fill="#4e4d50" d="M 111.90625 131.644531 L 111.90625 125.042969 C 111.90625 124.902344 112 124.808594 112.144531 124.808594 L 113.351562 124.808594 C 113.496094 124.808594 113.589844 124.902344 113.589844 125.042969 L 113.589844 131.667969 C 113.589844 132.804688 114.371094 133.585938 115.53125 133.585938 C 116.695312 133.585938 117.476562 132.804688 117.476562 131.667969 L 117.476562 125.042969 C 117.476562 124.902344 117.570312 124.808594 117.714844 124.808594 L 118.921875 124.808594 C 119.0625 124.808594 119.160156 124.902344 119.160156 125.042969 L 119.160156 131.644531 C 119.160156 133.703125 117.714844 135.03125 115.53125 135.03125 C 113.351562 135.03125 111.90625 133.679688 111.90625 131.644531 Z M 111.90625 131.644531 " fill-opacity="1" fill-rule="nonzero"/></g><g clip-path="url(#f0ca7da5d0)"><path fill="#4e4d50" d="M 121.671875 132.144531 L 121.671875 131.835938 C 121.671875 131.695312 121.765625 131.597656 121.910156 131.597656 L 123.09375 131.597656 C 123.234375 131.597656 123.332031 131.667969 123.332031 131.8125 L 123.332031 132.046875 C 123.332031 132.898438 124.136719 133.585938 125.464844 133.585938 C 126.71875 133.585938 127.242188 132.972656 127.242188 132.238281 C 127.242188 131.410156 126.484375 131.078125 124.917969 130.464844 C 123.332031 129.894531 121.765625 129.257812 121.765625 127.433594 C 121.765625 125.707031 123.117188 124.6875 125.15625 124.6875 C 127.359375 124.6875 128.828125 125.894531 128.828125 127.671875 L 128.828125 127.859375 C 128.828125 128 128.734375 128.097656 128.59375 128.097656 L 127.40625 128.097656 C 127.265625 128.097656 127.171875 128.027344 127.171875 127.929688 L 127.171875 127.765625 C 127.171875 126.890625 126.433594 126.15625 125.0625 126.15625 C 123.992188 126.15625 123.378906 126.628906 123.378906 127.433594 C 123.378906 128.308594 124.066406 128.59375 125.75 129.207031 C 127.21875 129.777344 128.875 130.367188 128.875 132.238281 C 128.875 133.917969 127.527344 135.078125 125.296875 135.078125 C 123.070312 135.078125 121.648438 133.941406 121.648438 132.167969 Z M 121.671875 132.144531 " fill-opacity="1" fill-rule="nonzero"/></g><path fill="#4e4d50" d="M 131.484375 134.699219 L 131.484375 125.042969 C 131.484375 124.902344 131.578125 124.808594 131.722656 124.808594 L 132.929688 124.808594 C 133.070312 124.808594 133.167969 124.902344 133.167969 125.042969 L 133.167969 134.699219 C 133.167969 134.839844 133.070312 134.933594 132.929688 134.933594 L 131.722656 134.933594 C 131.578125 134.933594 131.484375 134.839844 131.484375 134.699219 Z M 131.484375 134.699219 " fill-opacity="1" fill-rule="nonzero"/><path fill="#4e4d50" d="M 136.152344 134.699219 L 136.152344 125.042969 C 136.152344 124.902344 136.246094 124.808594 136.390625 124.808594 L 137.550781 124.808594 C 137.550781 124.808594 137.789062 124.855469 137.835938 124.972656 L 141.890625 131.597656 C 141.890625 131.597656 141.984375 131.644531 141.984375 131.574219 L 141.984375 125.066406 C 141.984375 124.925781 142.078125 124.832031 142.222656 124.832031 L 143.429688 124.832031 C 143.570312 124.832031 143.667969 124.925781 143.667969 125.066406 L 143.667969 134.722656 C 143.667969 134.863281 143.570312 134.960938 143.429688 134.960938 L 142.246094 134.960938 C 142.246094 134.960938 142.007812 134.910156 141.960938 134.792969 L 137.90625 128.144531 C 137.90625 128.144531 137.8125 128.097656 137.8125 128.167969 L 137.8125 134.722656 C 137.8125 134.886719 137.742188 134.960938 137.597656 134.960938 L 136.390625 134.960938 C 136.246094 134.960938 136.152344 134.863281 136.152344 134.722656 Z M 136.152344 134.699219 " fill-opacity="1" fill-rule="nonzero"/><g clip-path="url(#5452cf78c5)"><path fill="#4e4d50" d="M 153.125 126.273438 L 148.265625 126.273438 C 148.265625 126.273438 148.171875 126.296875 148.171875 126.367188 L 148.171875 129.042969 C 148.171875 129.042969 148.195312 129.136719 148.265625 129.136719 L 151.511719 129.136719 C 151.65625 129.136719 151.75 129.230469 151.75 129.375 L 151.75 130.367188 C 151.75 130.511719 151.65625 130.605469 151.511719 130.605469 L 148.265625 130.605469 C 148.265625 130.605469 148.171875 130.628906 148.171875 130.699219 L 148.171875 133.46875 C 148.171875 133.46875 148.195312 133.5625 148.265625 133.5625 L 153.125 133.5625 C 153.265625 133.5625 153.359375 133.65625 153.359375 133.800781 L 153.359375 134.769531 C 153.359375 134.910156 153.265625 135.007812 153.125 135.007812 L 146.722656 135.007812 C 146.582031 135.007812 146.488281 134.910156 146.488281 134.769531 L 146.488281 125.113281 C 146.488281 124.972656 146.582031 124.878906 146.722656 124.878906 L 153.125 124.878906 C 153.265625 124.878906 153.359375 124.972656 153.359375 125.113281 L 153.359375 126.109375 C 153.359375 126.25 153.265625 126.34375 153.125 126.34375 Z M 153.125 126.273438 " fill-opacity="1" fill-rule="nonzero"/></g><g clip-path="url(#899f0c53cc)"><path fill="#4e4d50" d="M 155.519531 132.144531 L 155.519531 131.835938 C 155.519531 131.695312 155.613281 131.597656 155.753906 131.597656 L 156.941406 131.597656 C 157.082031 131.597656 157.175781 131.667969 157.175781 131.8125 L 157.175781 132.046875 C 157.175781 132.898438 157.984375 133.585938 159.308594 133.585938 C 160.566406 133.585938 161.085938 132.972656 161.085938 132.238281 C 161.085938 131.410156 160.328125 131.078125 158.765625 130.464844 C 157.175781 129.894531 155.613281 129.257812 155.613281 127.433594 C 155.613281 125.707031 156.964844 124.6875 159 124.6875 C 161.207031 124.6875 162.675781 125.894531 162.675781 127.671875 L 162.675781 127.859375 C 162.675781 128 162.582031 128.097656 162.4375 128.097656 L 161.253906 128.097656 C 161.113281 128.097656 161.015625 128.027344 161.015625 127.929688 L 161.015625 127.765625 C 161.015625 126.890625 160.28125 126.15625 158.90625 126.15625 C 157.839844 126.15625 157.222656 126.628906 157.222656 127.433594 C 157.222656 128.308594 157.910156 128.59375 159.59375 129.207031 C 161.0625 129.777344 162.722656 130.367188 162.722656 132.238281 C 162.722656 133.917969 161.371094 135.078125 159.144531 135.078125 C 156.917969 135.078125 155.492188 133.941406 155.492188 132.167969 Z M 155.519531 132.144531 " fill-opacity="1" fill-rule="nonzero"/></g><g clip-path="url(#8d47569add)"><path fill="#4e4d50" d="M 164.925781 132.144531 L 164.925781 131.835938 C 164.925781 131.695312 165.023438 131.597656 165.164062 131.597656 L 166.347656 131.597656 C 166.492188 131.597656 166.585938 131.667969 166.585938 131.8125 L 166.585938 132.046875 C 166.585938 132.898438 167.390625 133.585938 168.71875 133.585938 C 169.976562 133.585938 170.496094 132.972656 170.496094 132.238281 C 170.496094 131.410156 169.738281 131.078125 168.175781 130.464844 C 166.585938 129.894531 165.023438 129.257812 165.023438 127.433594 C 165.023438 125.707031 166.375 124.6875 168.410156 124.6875 C 170.617188 124.6875 172.085938 125.894531 172.085938 127.671875 L 172.085938 127.859375 C 172.085938 128 171.992188 128.097656 171.847656 128.097656 L 170.664062 128.097656 C 170.519531 128.097656 170.425781 128.027344 170.425781 127.929688 L 170.425781 127.765625 C 170.425781 126.890625 169.691406 126.15625 168.316406 126.15625 C 167.25 126.15625 166.632812 126.628906 166.632812 127.433594 C 166.632812 128.308594 167.320312 128.59375 169.003906 129.207031 C 170.472656 129.777344 172.132812 130.367188 172.132812 132.238281 C 172.132812 133.917969 170.78125 135.078125 168.554688 135.078125 C 166.324219 135.078125 164.902344 133.941406 164.902344 132.167969 Z M 164.925781 132.144531 " fill-opacity="1" fill-rule="nonzero"/></g><g clip-path="url(#3d336478af)"><path fill="#4e4d50" d="M 178.105469 132.144531 L 178.105469 131.835938 C 178.105469 131.695312 178.199219 131.597656 178.34375 131.597656 L 179.527344 131.597656 C 179.671875 131.597656 179.765625 131.667969 179.765625 131.8125 L 179.765625 132.046875 C 179.765625 132.898438 180.570312 133.585938 181.898438 133.585938 C 183.128906 133.585938 183.675781 132.972656 183.675781 132.238281 C 183.675781 131.410156 182.917969 131.078125 181.351562 130.464844 C 179.765625 129.894531 178.199219 129.257812 178.199219 127.433594 C 178.199219 125.707031 179.550781 124.6875 181.589844 124.6875 C 183.792969 124.6875 185.261719 125.894531 185.261719 127.671875 L 185.261719 127.859375 C 185.261719 128 185.167969 128.097656 185.027344 128.097656 L 183.839844 128.097656 C 183.699219 128.097656 183.605469 128.027344 183.605469 127.929688 L 183.605469 127.765625 C 183.605469 126.890625 182.871094 126.15625 181.496094 126.15625 C 180.429688 126.15625 179.8125 126.628906 179.8125 127.433594 C 179.8125 128.308594 180.5 128.59375 182.183594 129.207031 C 183.652344 129.777344 185.3125 130.367188 185.3125 132.238281 C 185.3125 133.917969 183.960938 135.078125 181.730469 135.078125 C 179.503906 135.078125 178.082031 133.941406 178.082031 132.167969 Z M 178.105469 132.144531 " fill-opacity="1" fill-rule="nonzero"/></g><g clip-path="url(#32649bf65c)"><path fill="#4e4d50" d="M 194.53125 126.273438 L 189.671875 126.273438 C 189.671875 126.273438 189.578125 126.296875 189.578125 126.367188 L 189.578125 129.042969 C 189.578125 129.042969 189.601562 129.136719 189.671875 129.136719 L 192.917969 129.136719 C 193.0625 129.136719 193.15625 129.230469 193.15625 129.375 L 193.15625 130.367188 C 193.15625 130.511719 193.0625 130.605469 192.917969 130.605469 L 189.671875 130.605469 C 189.671875 130.605469 189.578125 130.628906 189.578125 130.699219 L 189.578125 133.46875 C 189.578125 133.46875 189.601562 133.5625 189.671875 133.5625 L 194.53125 133.5625 C 194.671875 133.5625 194.769531 133.65625 194.769531 133.800781 L 194.769531 134.769531 C 194.769531 134.910156 194.671875 135.007812 194.53125 135.007812 L 188.132812 135.007812 C 187.988281 135.007812 187.894531 134.910156 187.894531 134.769531 L 187.894531 125.113281 C 187.894531 124.972656 187.988281 124.878906 188.132812 124.878906 L 194.53125 124.878906 C 194.671875 124.878906 194.769531 124.972656 194.769531 125.113281 L 194.769531 126.109375 C 194.769531 126.25 194.671875 126.34375 194.53125 126.34375 Z M 194.53125 126.273438 " fill-opacity="1" fill-rule="nonzero"/></g><path fill="#4e4d50" d="M 202.804688 134.746094 L 200.90625 130.605469 C 200.90625 130.605469 200.859375 130.558594 200.8125 130.558594 L 199.128906 130.558594 C 199.128906 130.558594 199.035156 130.582031 199.035156 130.652344 L 199.035156 134.699219 C 199.035156 134.839844 198.941406 134.933594 198.796875 134.933594 L 197.589844 134.933594 C 197.445312 134.933594 197.351562 134.839844 197.351562 134.699219 L 197.351562 125.042969 C 197.351562 124.902344 197.445312 124.808594 197.589844 124.808594 L 201.5 124.808594 C 203.300781 124.808594 204.484375 125.992188 204.484375 127.765625 C 204.484375 129.113281 203.75 130.085938 202.566406 130.414062 C 202.519531 130.414062 202.496094 130.488281 202.519531 130.535156 L 204.507812 134.675781 C 204.582031 134.839844 204.507812 134.960938 204.34375 134.960938 L 203.0625 134.960938 C 202.945312 134.960938 202.851562 134.910156 202.78125 134.792969 Z M 199.035156 126.320312 L 199.035156 129.160156 C 199.035156 129.160156 199.058594 129.257812 199.128906 129.257812 L 201.285156 129.257812 C 202.210938 129.257812 202.828125 128.640625 202.828125 127.765625 C 202.828125 126.890625 202.210938 126.226562 201.285156 126.226562 L 199.128906 126.226562 C 199.128906 126.226562 199.035156 126.25 199.035156 126.320312 Z M 199.035156 126.320312 " fill-opacity="1" fill-rule="nonzero"/><path fill="#4e4d50" d="M 209.273438 134.746094 L 206.289062 125.089844 C 206.238281 124.925781 206.3125 124.832031 206.476562 124.832031 L 207.804688 124.832031 C 207.945312 124.832031 208.015625 124.878906 208.066406 125.019531 L 210.199219 132.496094 C 210.199219 132.496094 210.292969 132.570312 210.316406 132.496094 L 212.449219 125.042969 C 212.472656 124.902344 212.59375 124.832031 212.710938 124.832031 L 213.992188 124.832031 C 214.15625 124.832031 214.226562 124.925781 214.179688 125.089844 L 211.144531 134.746094 C 211.097656 134.863281 211.027344 134.933594 210.886719 134.933594 L 209.558594 134.933594 C 209.441406 134.933594 209.34375 134.886719 209.296875 134.746094 Z M 209.273438 134.746094 " fill-opacity="1" fill-rule="nonzero"/><path fill="#4e4d50" d="M 216.550781 134.699219 L 216.550781 125.042969 C 216.550781 124.902344 216.644531 124.808594 216.789062 124.808594 L 217.996094 124.808594 C 218.136719 124.808594 218.234375 124.902344 218.234375 125.042969 L 218.234375 134.699219 C 218.234375 134.839844 218.136719 134.933594 217.996094 134.933594 L 216.789062 134.933594 C 216.644531 134.933594 216.550781 134.839844 216.550781 134.699219 Z M 216.550781 134.699219 " fill-opacity="1" fill-rule="nonzero"/><g clip-path="url(#9e2c9e01a5)"><path fill="#4e4d50" d="M 220.957031 131.644531 L 220.957031 128.074219 C 220.957031 126.039062 222.40625 124.6875 224.585938 124.6875 C 226.765625 124.6875 228.210938 125.992188 228.210938 127.929688 C 228.210938 128.027344 228.140625 128.097656 228 128.097656 L 226.765625 128.167969 C 226.625 128.167969 226.527344 128.144531 226.527344 128.097656 L 226.527344 128 C 226.527344 126.867188 225.769531 126.109375 224.585938 126.109375 C 223.398438 126.109375 222.640625 126.867188 222.640625 128 L 222.640625 131.695312 C 222.640625 132.828125 223.425781 133.5625 224.585938 133.5625 C 225.746094 133.5625 226.527344 132.804688 226.527344 131.695312 C 226.527344 131.597656 226.625 131.527344 226.765625 131.527344 L 227.972656 131.574219 C 228.117188 131.574219 228.210938 131.597656 228.210938 131.644531 L 228.210938 131.71875 C 228.210938 133.703125 226.765625 135.007812 224.585938 135.007812 C 222.40625 135.007812 220.957031 133.65625 220.957031 131.621094 Z M 220.957031 131.644531 " fill-opacity="1" fill-rule="nonzero"/></g><g clip-path="url(#0e922e383e)"><path fill="#4e4d50" d="M 237.503906 126.273438 L 232.644531 126.273438 C 232.644531 126.273438 232.550781 126.296875 232.550781 126.367188 L 232.550781 129.042969 C 232.550781 129.042969 232.574219 129.136719 232.644531 129.136719 L 235.890625 129.136719 C 236.035156 129.136719 236.128906 129.230469 236.128906 129.375 L 236.128906 130.367188 C 236.128906 130.511719 236.035156 130.605469 235.890625 130.605469 L 232.644531 130.605469 C 232.644531 130.605469 232.550781 130.628906 232.550781 130.699219 L 232.550781 133.46875 C 232.550781 133.46875 232.574219 133.5625 232.644531 133.5625 L 237.503906 133.5625 C 237.644531 133.5625 237.738281 133.65625 237.738281 133.800781 L 237.738281 134.769531 C 237.738281 134.910156 237.644531 135.007812 237.503906 135.007812 L 231.101562 135.007812 C 230.960938 135.007812 230.867188 134.910156 230.867188 134.769531 L 230.867188 125.113281 C 230.867188 124.972656 230.960938 124.878906 231.101562 124.878906 L 237.503906 124.878906 C 237.644531 124.878906 237.738281 124.972656 237.738281 125.113281 L 237.738281 126.109375 C 237.738281 126.25 237.644531 126.34375 237.503906 126.34375 Z M 237.503906 126.273438 " fill-opacity="1" fill-rule="nonzero"/></g><g clip-path="url(#6db35f6871)"><path fill="#4e4d50" d="M 239.898438 132.144531 L 239.898438 131.835938 C 239.898438 131.695312 239.992188 131.597656 240.132812 131.597656 L 241.320312 131.597656 C 241.460938 131.597656 241.554688 131.667969 241.554688 131.8125 L 241.554688 132.046875 C 241.554688 132.898438 242.363281 133.585938 243.6875 133.585938 C 244.921875 133.585938 245.464844 132.972656 245.464844 132.238281 C 245.464844 131.410156 244.707031 131.078125 243.144531 130.464844 C 241.554688 129.894531 239.992188 129.257812 239.992188 127.433594 C 239.992188 125.707031 241.34375 124.6875 243.382812 124.6875 C 245.585938 124.6875 247.054688 125.894531 247.054688 127.671875 L 247.054688 127.859375 C 247.054688 128 246.960938 128.097656 246.816406 128.097656 L 245.632812 128.097656 C 245.492188 128.097656 245.394531 128.027344 245.394531 127.929688 L 245.394531 127.765625 C 245.394531 126.890625 244.660156 126.15625 243.285156 126.15625 C 242.21875 126.15625 241.601562 126.628906 241.601562 127.433594 C 241.601562 128.308594 242.289062 128.59375 243.972656 129.207031 C 245.441406 129.777344 247.101562 130.367188 247.101562 132.238281 C 247.101562 133.917969 245.75 135.078125 243.523438 135.078125 C 241.296875 135.078125 239.871094 133.941406 239.871094 132.167969 Z M 239.898438 132.144531 " fill-opacity="1" fill-rule="nonzero"/></g><g clip-path="url(#6675f8ca56)"><path fill="#3d505c" d="M 146.867188 56.984375 C 146.867188 67.089844 138.855469 73.835938 126.625 73.835938 L 101.40625 73.835938 L 101.40625 15.835938 L 126.292969 15.835938 C 136.722656 15.835938 143.714844 21.941406 143.714844 31.027344 C 143.714844 36.28125 140.894531 40.421875 135.941406 43.09375 C 142.695312 45.367188 146.84375 50.382812 146.84375 56.960938 Z M 112.476562 39.5 L 123.613281 39.5 C 128.875 39.5 132.335938 36.589844 132.335938 32.210938 C 132.335938 27.832031 128.804688 24.992188 123.710938 24.992188 L 112.476562 24.992188 Z M 135.464844 56.65625 C 135.464844 51.804688 131.625 48.585938 126.054688 48.585938 L 112.476562 48.585938 L 112.476562 64.652344 L 125.890625 64.652344 C 131.625 64.652344 135.464844 61.433594 135.464844 56.65625 Z M 135.464844 56.65625 " fill-opacity="1" fill-rule="nonzero"/></g><path fill="#3d505c" d="M 197.589844 57.246094 C 197.589844 67.351562 189.578125 74.09375 177.347656 74.09375 L 152.152344 74.09375 L 152.152344 16.09375 L 177.039062 16.09375 C 187.46875 16.09375 194.460938 22.199219 194.460938 31.289062 C 194.460938 36.539062 191.640625 40.683594 186.6875 43.355469 C 193.441406 45.628906 197.589844 50.644531 197.589844 57.222656 Z M 163.195312 39.757812 L 174.335938 39.757812 C 179.597656 39.757812 183.058594 36.847656 183.058594 32.46875 C 183.058594 28.09375 179.527344 25.253906 174.433594 25.253906 L 163.195312 25.253906 Z M 186.1875 56.914062 C 186.1875 52.0625 182.347656 48.847656 176.777344 48.847656 L 163.195312 48.847656 L 163.195312 64.914062 L 176.613281 64.914062 C 182.347656 64.914062 186.1875 61.695312 186.1875 56.914062 Z M 186.1875 56.914062 " fill-opacity="1" fill-rule="nonzero"/><g clip-path="url(#fbb415bb80)"><path fill="#3d505c" d="M 202.730469 67.328125 L 206.902344 59.875 C 211.855469 63.945312 217.332031 65.433594 222.6875 65.433594 C 229.988281 65.433594 234.230469 62.925781 234.230469 58.453125 C 234.230469 53.746094 229.371094 51.710938 222.074219 49.675781 L 218.777344 48.726562 C 209.203125 46.148438 202.066406 42.148438 202.066406 32.660156 C 202.066406 22.082031 210.625 15.03125 223.566406 15.03125 C 231.03125 15.03125 237.621094 17.230469 243.191406 21.679688 L 238.238281 29.371094 C 233.921875 25.914062 229.277344 24.1875 223.636719 24.1875 C 217.523438 24.1875 213.515625 26.765625 213.515625 30.859375 C 213.515625 35.476562 218.136719 37.132812 223.875 38.765625 L 227.238281 39.710938 C 236.199219 42.148438 245.679688 47 245.679688 57.414062 C 245.679688 67.824219 236.71875 74.570312 223.375 74.570312 C 215.363281 74.570312 207.921875 72.058594 202.730469 67.28125 Z M 202.730469 67.328125 " fill-opacity="1" fill-rule="nonzero"/></g><g clip-path="url(#7a55f49ed4)"><path fill="#849daa" d="M 101.40625 15.835938 L 112.476562 15.835938 L 112.476562 48.585938 L 101.40625 48.585938 Z M 101.40625 15.835938 " fill-opacity="1" fill-rule="nonzero"/></g><path fill="#849daa" d="M 152.152344 39.757812 L 163.222656 39.757812 L 163.222656 74.09375 L 152.152344 74.09375 Z M 152.152344 39.757812 " fill-opacity="1" fill-rule="nonzero"/><path fill="#849daa" d="M 223.851562 38.789062 L 218.753906 48.75 C 218.753906 48.75 229.324219 51.355469 232.074219 53.980469 C 232.074219 53.980469 234.183594 55.566406 234.230469 58.476562 L 245.703125 58.476562 C 245.703125 58.476562 246.699219 50.453125 239.257812 45.152344 C 239.257812 45.152344 235.535156 41.558594 223.875 38.8125 Z M 223.851562 38.789062 " fill-opacity="1" fill-rule="nonzero"/><g clip-path="url(#e0178dc30a)"><path fill="#3d505c" d="M 101.382812 86.28125 L 247.601562 86.28125 L 247.601562 90.472656 L 101.382812 90.472656 Z M 101.382812 86.28125 " fill-opacity="1" fill-rule="nonzero"/></g></svg>