<svg xmlns="http://www.w3.org/2000/svg" xmlns:xlink="http://www.w3.org/1999/xlink" width="465" zoomAndPan="magnify" viewBox="0 0 348.75 149.999998" height="200" preserveAspectRatio="xMidYMid meet" version="1.0"><path fill="#000000" d="M 288.332031 18.132812 L 170.261719 47.460938 C 163.699219 49.105469 156.082031 48.515625 147.289062 47.714844 C 136.347656 46.75 123.894531 45.652344 110.429688 48.976562 C 104.875 50.15625 99.320312 52.597656 94.777344 55.835938 C 89.769531 59.414062 86.066406 63.957031 84.089844 69.046875 L 60.484375 74.726562 L 60.484375 132.035156 L 183.222656 101.449219 C 194.203125 98.710938 202.703125 98.882812 210.234375 99.050781 C 212.128906 99.089844 213.851562 99.132812 215.664062 99.132812 L 217.222656 99.089844 C 223.867188 99.050781 233.921875 98.964844 243.179688 96.734375 C 254.625 93.917969 263.671875 87.941406 268.046875 80.324219 L 288.328125 75.273438 L 288.328125 18.132812 Z M 288.332031 18.132812 " fill-opacity="1" fill-rule="evenodd"/><path fill="#bd9e37" d="M 87.582031 74.097656 C 90.019531 65.640625 96.207031 56.507812 114.257812 53.183594 C 133.867188 49.566406 153.054688 54.65625 162.476562 53.941406 C 167.484375 53.5625 172.113281 52.214844 176.660156 49.398438 C 175.230469 51.796875 170.429688 55.582031 163.40625 57.5625 C 146.53125 62.273438 122.421875 53.730469 104.875 59.03125 C 97.34375 61.347656 92.464844 65.722656 87.582031 74.097656 Z M 266.871094 70.476562 C 265.355469 77.335938 260.558594 85.835938 245.539062 90.929688 C 228.160156 96.816406 203.25 92.316406 190.710938 95.554688 C 187.890625 96.273438 183.894531 97.535156 179.476562 100.523438 C 180.777344 98.082031 185.953125 94 192.183594 91.640625 C 209.140625 85.207031 235.144531 90.886719 250.585938 85.796875 C 256.898438 83.734375 262.535156 79.148438 266.871094 70.476562 Z M 266.871094 70.476562 " fill-opacity="1" fill-rule="evenodd"/><path fill="#ffffff" d="M 237.289062 47.714844 C 237.289062 48.429688 237.289062 50.828125 237.25 51.710938 C 237.25 52.089844 237.164062 52.425781 236.828125 52.511719 C 236.199219 52.679688 236.28125 51.753906 236.199219 51.332031 C 236.15625 50.703125 235.523438 49.945312 232.789062 50.535156 L 229.128906 51.332031 L 229.210938 65.261719 C 229.253906 68.457031 229.292969 71.152344 229.460938 72.625 C 229.589844 73.59375 229.714844 74.011719 230.429688 73.929688 C 230.851562 73.886719 231.480469 73.757812 231.988281 73.71875 C 232.535156 73.59375 232.703125 73.761719 232.703125 74.054688 C 232.746094 74.558594 232.324219 74.6875 231.988281 74.769531 C 229.96875 75.273438 228.074219 75.652344 227.148438 75.863281 C 226.472656 76.03125 224.496094 76.621094 223.320312 76.914062 C 222.730469 77.085938 222.476562 76.914062 222.476562 76.535156 C 222.4375 76.199219 222.730469 76.03125 223.109375 75.902344 C 223.53125 75.820312 223.867188 75.691406 224.121094 75.523438 C 224.667969 75.273438 224.792969 74.601562 224.917969 73.589844 C 225 72.117188 225 69.382812 225 66.226562 L 224.832031 52.425781 L 220.542969 53.644531 C 218.773438 54.109375 218.144531 54.53125 217.679688 55.285156 C 217.429688 55.832031 217.300781 56.210938 217.21875 56.546875 C 217.175781 56.84375 217.050781 57.09375 216.753906 57.222656 C 216.332031 57.304688 216.207031 57.054688 216.207031 56.507812 C 216.25 55.960938 216.796875 52.675781 216.839844 52.382812 C 216.964844 51.753906 217.132812 51.542969 217.34375 51.5 C 217.511719 51.417969 217.679688 51.5 217.890625 51.542969 C 218.101562 51.542969 218.3125 51.625 218.648438 51.542969 C 219.695312 51.394531 220.734375 51.199219 221.761719 50.953125 L 233.839844 47.964844 C 235.816406 47.460938 236.574219 46.914062 236.824219 46.828125 C 237.121094 46.789062 237.289062 47 237.289062 47.714844 Z M 215.074219 53.4375 C 215.199219 61.683594 215.03125 69.972656 214.988281 78.304688 C 214.988281 79.1875 214.738281 79.566406 214.398438 79.648438 C 214.019531 79.734375 213.601562 79.4375 213.222656 79.101562 C 211.371094 77.632812 198.957031 66.480469 196.9375 64.628906 L 197.402344 78.640625 C 197.484375 81.375 197.90625 81.796875 198.371094 81.878906 C 198.792969 81.921875 199.339844 81.878906 199.84375 81.710938 C 200.347656 81.585938 200.597656 81.753906 200.597656 82.089844 C 200.597656 82.550781 200.179688 82.722656 199.714844 82.765625 C 197.65625 83.226562 196.558594 83.5625 195.96875 83.730469 C 195.132812 83.984375 194.414062 83.941406 194.457031 83.015625 C 194.496094 82.003906 194.457031 81.878906 194.539062 78.890625 L 194.582031 58.441406 C 194.582031 57.476562 194.792969 57.097656 195.128906 56.96875 C 195.632812 56.886719 196.179688 57.558594 196.476562 57.8125 C 196.855469 58.191406 201.566406 62.609375 206.027344 66.480469 C 208.003906 68.160156 211.707031 71.613281 212.675781 72.496094 L 212.253906 57.390625 C 212.210938 55.285156 211.917969 54.78125 211.371094 54.65625 C 210.992188 54.613281 210.234375 54.78125 209.8125 54.867188 C 209.476562 54.992188 209.054688 54.90625 209.054688 54.53125 C 209.054688 54.152344 209.476562 53.898438 210.023438 53.773438 C 211.667969 53.4375 212.84375 53.097656 213.726562 52.847656 C 214.738281 52.636719 215.074219 52.761719 215.074219 53.4375 Z M 190.585938 58.90625 C 190.585938 59.160156 190.457031 59.578125 190.375 61.261719 C 190.375 61.601562 190.289062 63.113281 190.289062 63.578125 C 190.207031 63.746094 190.164062 64.082031 189.785156 64.167969 C 189.449219 64.25 189.28125 64.039062 189.28125 63.578125 C 189.28125 63.285156 189.238281 62.777344 189.113281 62.441406 C 188.902344 61.976562 188.734375 61.683594 187.261719 61.808594 C 186.714844 61.9375 182.085938 62.945312 181.453125 63.15625 C 181.371094 63.15625 181.285156 63.28125 181.285156 63.410156 L 181.367188 72.078125 C 181.367188 72.160156 181.453125 72.160156 181.539062 72.160156 C 182.210938 71.949219 187.09375 70.769531 187.765625 70.519531 C 188.519531 70.222656 188.902344 70.054688 189.152344 69.71875 C 189.28125 69.507812 189.53125 69.128906 189.785156 69.046875 C 190.035156 69.003906 190.207031 69.171875 190.207031 69.507812 C 190.207031 69.675781 190.125 70.265625 189.996094 72.074219 C 189.910156 72.789062 189.867188 74.09375 189.910156 74.386719 C 189.910156 74.765625 189.828125 75.1875 189.449219 75.269531 C 189.070312 75.355469 188.941406 75.101562 188.941406 74.890625 C 188.859375 73.714844 188.941406 72.703125 187.300781 72.957031 C 186.714844 73.039062 182.253906 74.09375 181.539062 74.261719 C 181.453125 74.304688 181.410156 74.375 181.410156 74.46875 C 181.410156 75.859375 181.453125 82.546875 181.453125 82.546875 C 181.496094 84.566406 183.222656 84.566406 186.460938 83.855469 C 187.34375 83.558594 188.519531 83.265625 189.28125 82.714844 C 189.996094 82.167969 190.371094 81.414062 190.539062 79.941406 C 190.582031 79.605469 190.625 79.269531 191.046875 79.183594 C 191.382812 79.101562 191.507812 79.433594 191.507812 79.941406 C 191.507812 80.738281 191.296875 83.179688 191.128906 83.894531 C 190.878906 85.074219 190.371094 85.074219 189.40625 85.328125 C 184.734375 86.503906 181.113281 87.347656 179.304688 87.765625 C 178.632812 87.9375 176.699219 88.523438 175.476562 88.859375 C 174.886719 88.988281 174.632812 88.859375 174.632812 88.480469 C 174.59375 88.144531 174.886719 87.933594 175.265625 87.847656 C 175.6875 87.765625 176.023438 87.597656 176.277344 87.425781 C 176.824219 87.21875 176.949219 86.542969 177.074219 85.535156 C 177.246094 84.019531 177.203125 81.324219 177.117188 78.171875 L 177.117188 72.113281 C 177.074219 66.9375 177.074219 65.925781 176.949219 64.875 C 176.90625 63.738281 176.695312 63.445312 175.8125 63.445312 C 175.601562 63.445312 175.140625 63.488281 174.675781 63.613281 C 174.128906 63.738281 173.917969 63.613281 173.917969 63.277344 C 173.917969 62.941406 174.128906 62.730469 174.757812 62.558594 C 176.359375 62.179688 178.335938 61.800781 179.136719 61.59375 C 180.101562 61.339844 187.550781 59.488281 188.390625 59.277344 C 188.855469 59.066406 189.402344 58.859375 189.863281 58.605469 C 189.949219 58.519531 190.074219 58.480469 190.160156 58.4375 C 190.460938 58.359375 190.628906 58.527344 190.585938 58.90625 Z M 190.585938 58.90625 " fill-opacity="1" fill-rule="evenodd"/><path fill="#ffffff" d="M 171.691406 64.460938 C 171.691406 64.839844 171.4375 65.890625 171.484375 70.140625 C 171.484375 70.6875 171.441406 71.066406 171.019531 71.152344 C 170.683594 71.234375 170.472656 71.066406 170.429688 70.605469 C 170.347656 69.847656 170.222656 68.835938 169.464844 68.121094 C 168.578125 67.320312 166.769531 66.058594 163.699219 66.816406 C 162.015625 67.238281 160.457031 67.910156 158.691406 69.929688 C 157.261719 71.699219 156.042969 75.105469 156.042969 79.3125 C 156.082031 85.078125 158.480469 91.390625 164.667969 89.875 C 165.464844 89.621094 166.476562 89.371094 167.152344 88.867188 C 167.570312 88.570312 167.699219 88.191406 167.699219 87.601562 C 167.613281 81.375 167.613281 80.324219 167.613281 80.324219 C 167.570312 79.230469 167.320312 78.890625 166.433594 78.890625 C 166.226562 78.890625 165.71875 78.976562 165.296875 79.101562 C 164.835938 79.1875 164.582031 79.0625 164.582031 78.722656 C 164.582031 78.304688 164.960938 78.136719 165.382812 78.050781 C 166.984375 77.628906 168.917969 77.253906 169.84375 77.039062 C 170.769531 76.789062 172.410156 76.242188 173.421875 76.03125 C 173.96875 75.863281 174.261719 76.03125 174.304688 76.449219 C 174.304688 76.746094 173.96875 76.914062 173.757812 76.996094 C 173.464844 77.039062 173.296875 77.125 172.917969 77.292969 C 172.203125 77.585938 171.949219 78.21875 171.949219 79.355469 C 171.949219 79.355469 171.863281 80.40625 171.949219 87.222656 C 171.992188 88.191406 171.949219 88.359375 171.488281 88.738281 C 169.507812 90.503906 166.4375 91.511719 164.039062 92.105469 C 157.433594 93.746094 151.585938 90.632812 151.417969 81.585938 C 151.207031 72.117188 157.433594 66.394531 164.039062 64.710938 C 166.183594 64.207031 167.996094 64.207031 168.625 64.164062 C 169.214844 64.164062 170.308594 64.082031 171.023438 63.953125 C 171.484375 63.871094 171.691406 64.125 171.691406 64.460938 Z M 112.660156 67.910156 C 112.660156 68.039062 112.574219 68.332031 112.324219 68.878906 C 110.640625 72.328125 109.964844 74.726562 109.671875 76.539062 C 109.335938 78.304688 109.460938 79.484375 109.335938 80.535156 C 109.292969 81.585938 107.945312 81.753906 107.652344 80.453125 C 107.398438 79.441406 107.230469 78.347656 106.894531 77.335938 C 106.054688 74.980469 104.242188 73.675781 101.464844 74.054688 C 98.605469 74.394531 96.5 76.578125 96.878906 79.484375 C 97.175781 81.628906 98.984375 83.355469 101.296875 85.082031 C 104.664062 87.730469 109.671875 90.886719 110.261719 95.515625 C 110.765625 99.597656 108.15625 103.339844 105.378906 105.824219 C 101.128906 109.695312 97.679688 111.125 93.851562 111.632812 C 91.328125 111.964844 89.054688 111.671875 87.203125 110.914062 C 83.835938 109.652344 82.28125 107.335938 81.941406 104.8125 C 81.480469 101.363281 83.246094 97.832031 85.605469 96.101562 C 86.109375 95.726562 87.664062 95.050781 86.742188 96.398438 C 85.519531 98.207031 85.394531 100.355469 85.605469 102.121094 C 86.152344 106.285156 89.558594 109.652344 95.195312 108.9375 C 99.109375 108.390625 106.683594 104.480469 105.84375 98.164062 C 105.507812 95.304688 103.234375 93.453125 101.089844 91.855469 C 97.214844 88.867188 90.484375 84.703125 93.179688 78.894531 C 94.859375 75.359375 98.730469 72.960938 102.6875 71.824219 C 104.625 71.277344 107.316406 71.445312 107.777344 72.371094 C 107.863281 72.5 107.863281 72.582031 107.988281 72.539062 C 108.285156 72.539062 108.789062 70.773438 108.875 70.476562 C 109.042969 69.929688 109.210938 69.511719 109.296875 69.214844 C 109.675781 68.542969 109.96875 68.5 110.558594 68.25 C 111.0625 68.039062 111.652344 67.535156 112.15625 67.492188 C 112.40625 67.449219 112.574219 67.574219 112.660156 67.910156 Z M 261.988281 56.046875 C 262.203125 61.011719 261.273438 65.933594 258.203125 69.59375 C 255.761719 72.496094 253.742188 73.929688 250.417969 74.726562 C 242.382812 76.621094 237.710938 72.625 237.25 61.515625 C 237.082031 57.308594 238.175781 52.761719 239.941406 49.859375 C 242.171875 46.285156 246 44.011719 249.871094 43.128906 C 258.078125 41.191406 261.65625 46.871094 261.988281 56.046875 Z M 257.277344 58.316406 C 257.195312 52.175781 256.140625 47.671875 253.785156 46.03125 C 252.441406 45.105469 250.671875 44.855469 248.230469 45.777344 C 244.652344 47.210938 241.960938 50.449219 241.960938 59.328125 C 241.960938 63.957031 242.507812 68.542969 244.484375 70.941406 C 246.125 73 248.398438 73.042969 251.050781 72.246094 C 254.917969 70.984375 257.359375 67.828125 257.277344 58.316406 Z M 257.277344 58.316406 " fill-opacity="1" fill-rule="evenodd"/><path fill="#ffffff" d="M 155.324219 93.496094 C 155.113281 93.535156 154.820312 93.621094 154.484375 93.621094 C 154.105469 93.660156 152.167969 93.199219 150.527344 91.683594 C 149.519531 90.886719 148.550781 89.832031 147.457031 88.570312 C 146.40625 87.394531 145.226562 86.003906 143.878906 84.449219 C 146.867188 80.910156 147.835938 78.34375 147.75 75.78125 C 147.75 73.378906 146.53125 71.867188 145.5625 71.402344 C 143.839844 70.476562 141.652344 70.816406 139.757812 71.277344 C 138.789062 71.53125 136.476562 72.246094 135.421875 72.496094 C 134.792969 72.625 132.898438 73.042969 131.214844 73.464844 C 130.628906 73.589844 130.417969 73.757812 130.417969 74.09375 C 130.417969 74.472656 130.667969 74.601562 131.214844 74.472656 C 131.59375 74.390625 132.097656 74.265625 132.351562 74.265625 C 133.191406 74.265625 133.445312 74.601562 133.445312 75.695312 C 133.53125 76.789062 133.53125 77.800781 133.570312 83.015625 L 133.65625 88.992188 C 133.699219 92.1875 133.699219 94.878906 133.570312 96.394531 C 133.445312 97.449219 133.277344 98.078125 132.773438 98.289062 C 132.6875 98.375 132.5625 98.417969 132.351562 98.457031 C 131.804688 98.457031 131.003906 98.289062 129.785156 95.515625 C 127.804688 90.757812 122.671875 77.925781 122 76.242188 C 121.621094 75.230469 121.285156 75.148438 120.992188 75.191406 C 120.613281 75.273438 120.445312 75.527344 119.980469 76.917969 L 112.492188 100.480469 C 111.945312 102.332031 111.355469 103.550781 110.050781 104.058594 C 109.796875 104.140625 109.375 104.265625 109.125 104.351562 C 108.828125 104.433594 108.660156 104.5625 108.660156 104.9375 C 108.660156 105.316406 108.828125 105.484375 109.460938 105.277344 C 111.019531 104.9375 112.238281 104.519531 113.039062 104.265625 C 113.964844 104.054688 115.3125 103.84375 116.320312 103.59375 C 116.65625 103.507812 116.996094 103.339844 116.996094 102.917969 C 116.996094 102.496094 116.617188 102.496094 116.28125 102.582031 L 115.816406 102.710938 C 114.976562 102.878906 114.851562 102.582031 114.851562 102.164062 C 114.851562 101.742188 114.933594 100.902344 115.269531 99.976562 L 116.867188 94.628906 C 116.867188 94.503906 116.953125 94.503906 116.996094 94.503906 L 123.726562 92.734375 C 123.769531 92.734375 123.894531 92.777344 123.9375 92.820312 L 126.125 98.667969 C 126.460938 99.597656 126.460938 100.015625 125.242188 100.433594 C 124.945312 100.519531 124.738281 100.691406 124.820312 100.980469 C 124.863281 101.277344 125.15625 101.402344 125.828125 101.152344 C 126.839844 100.898438 128.609375 100.476562 129.449219 100.226562 C 130.25 100.015625 132.097656 99.636719 132.941406 99.425781 C 133.445312 99.300781 135.253906 98.753906 136.136719 98.542969 C 136.851562 98.375 138.410156 98.078125 140.21875 97.617188 C 140.597656 97.535156 140.933594 97.363281 140.933594 96.984375 C 140.933594 96.519531 140.640625 96.480469 140.347656 96.519531 C 140.007812 96.648438 139.335938 96.777344 138.875 96.777344 C 138.160156 96.859375 137.988281 96.394531 137.90625 95.386719 C 137.90625 95.386719 137.695312 93.996094 137.695312 87.601562 C 137.695312 87.515625 137.695312 87.472656 137.738281 87.472656 L 140.429688 86.882812 C 140.597656 86.84375 140.683594 86.84375 140.765625 86.882812 C 140.9375 87.097656 141.441406 87.726562 141.988281 88.484375 C 142.535156 89.199219 143.207031 90.082031 143.839844 90.882812 C 145.566406 93.070312 146.785156 94.5 148.175781 94.964844 C 149.519531 95.386719 150.53125 95.636719 151.960938 95.300781 L 155.199219 94.585938 C 155.578125 94.5 155.957031 94.292969 155.957031 93.871094 C 155.957031 93.535156 155.621094 93.453125 155.324219 93.496094 Z M 123.050781 90.800781 C 122.925781 90.84375 117.835938 92.105469 117.75 92.148438 C 117.707031 92.148438 117.625 92.105469 117.707031 91.980469 C 117.707031 91.894531 120.359375 83.058594 120.359375 83.058594 C 120.359375 83.058594 123.050781 90.507812 123.050781 90.632812 C 123.09375 90.71875 123.09375 90.757812 123.050781 90.800781 Z M 142.070312 83.859375 C 141.566406 84.40625 141.1875 84.574219 140.007812 84.910156 C 139.253906 85.078125 138.367188 85.203125 137.738281 85.164062 C 137.652344 85.078125 137.652344 85.035156 137.652344 84.785156 L 137.570312 74.347656 C 137.570312 74.09375 137.570312 74.054688 137.695312 73.96875 C 138.035156 73.757812 138.539062 73.632812 139.253906 73.464844 C 140.9375 73.042969 143.753906 73.589844 143.753906 78.386719 C 143.796875 81.167969 142.953125 82.933594 142.070312 83.859375 Z M 142.070312 83.859375 " fill-opacity="1" fill-rule="evenodd"/><path fill="#bd9e37" d="M 267.082031 62.609375 C 267.082031 61.347656 268.046875 60.378906 269.269531 60.335938 C 270.488281 60.335938 271.457031 61.304688 271.457031 62.566406 C 271.457031 63.871094 270.53125 64.839844 269.3125 64.839844 C 268.046875 64.839844 267.082031 63.914062 267.082031 62.609375 Z M 269.3125 65.300781 C 270.785156 65.261719 272.003906 64.125 272.003906 62.566406 C 272.003906 61.011719 270.742188 59.875 269.269531 59.917969 C 267.796875 59.917969 266.535156 61.054688 266.535156 62.609375 C 266.574219 64.167969 267.839844 65.300781 269.3125 65.300781 Z M 268.71875 62.820312 L 269.265625 62.820312 L 270.066406 64.125 L 270.617188 64.125 L 269.730469 62.777344 C 270.152344 62.738281 270.527344 62.484375 270.527344 61.9375 C 270.527344 61.308594 270.148438 61.054688 269.390625 61.054688 L 268.214844 61.054688 L 268.257812 64.167969 L 268.71875 64.167969 Z M 268.71875 62.398438 L 268.71875 61.429688 L 269.355469 61.429688 C 269.6875 61.429688 270.027344 61.515625 270.027344 61.894531 C 270.027344 62.355469 269.691406 62.398438 269.269531 62.398438 Z M 268.71875 62.398438 " fill-opacity="1" fill-rule="evenodd"/></svg>