<svg xmlns="http://www.w3.org/2000/svg" xmlns:xlink="http://www.w3.org/1999/xlink" width="500" zoomAndPan="magnify" viewBox="0 0 375 374.999991" height="500" preserveAspectRatio="xMidYMid meet" version="1.0"><defs><clipPath id="8ac99ce7a2"><path d="M 1.328125 0 L 373.328125 0 L 373.328125 375 L 1.328125 375 Z M 1.328125 0 " clip-rule="nonzero"/></clipPath></defs><g clip-path="url(#8ac99ce7a2)"><path fill="#2949ff" d="M 371.578125 142.664062 C 325.945312 151.195312 280.3125 159.730469 234.679688 168.261719 C 273.703125 141.1875 312.726562 114.117188 351.753906 87.042969 C 329.59375 64.117188 307.429688 41.195312 285.265625 18.269531 C 259.449219 59.742188 233.625 101.210938 207.808594 142.6875 C 216.375 95.257812 224.945312 47.832031 233.511719 0.40625 C 201.566406 0.40625 171.734375 0.40625 139.71875 0.40625 C 151.375 48.605469 163.035156 96.804688 174.691406 145.003906 C 145.433594 105.261719 116.175781 65.519531 86.917969 25.777344 C 64.890625 46.636719 42.855469 67.5 20.828125 88.359375 C 65.074219 113.863281 109.320312 139.371094 153.570312 164.878906 C 102.8125 157.019531 52.0625 149.164062 1.3125 141.308594 C 1.3125 173.183594 1.3125 201.988281 1.3125 234.679688 C 50.863281 223.921875 100.417969 213.160156 149.976562 202.40625 C 105.621094 231.160156 61.261719 259.914062 16.902344 288.664062 C 40.351562 311.8125 63.796875 334.964844 87.242188 358.117188 C 115.015625 313.292969 142.796875 268.472656 170.574219 223.65625 C 159.945312 273.96875 149.3125 324.28125 138.683594 374.59375 C 171.273438 374.59375 203.167969 374.59375 237.316406 374.59375 C 227.566406 323.71875 217.816406 272.839844 208.0625 221.960938 C 236.226562 266.5 264.390625 311.039062 292.554688 355.578125 C 314.519531 332.851562 336.488281 310.125 358.453125 287.394531 C 316.636719 260.792969 274.808594 234.191406 232.988281 207.585938 C 279.773438 215.058594 326.558594 222.527344 373.34375 229.996094 C 372.757812 200.886719 372.171875 171.773438 371.578125 142.664062 " fill-opacity="1" fill-rule="nonzero"/></g></svg>