<svg xmlns="http://www.w3.org/2000/svg" xmlns:xlink="http://www.w3.org/1999/xlink" width="500" zoomAndPan="magnify" viewBox="0 0 375 374.999991" height="500" preserveAspectRatio="xMidYMid meet" version="1.0"><path fill="#2949ff" d="M 262.765625 269.5 C 258.21875 266.457031 256.628906 262.195312 257.0625 256.984375 C 257.265625 254.585938 257.554688 252.175781 258.105469 249.839844 C 259.039062 245.886719 258.320312 242.621094 255.480469 239.542969 C 250.726562 234.390625 244.546875 233.925781 238.558594 234.914062 C 229.796875 236.363281 221.171875 238.777344 212.574219 241.089844 C 209.734375 241.851562 207.457031 242.066406 205.703125 239.417969 C 204.574219 237.707031 203.265625 237.882812 201.855469 238.863281 C 198.566406 241.15625 195.308594 243.476562 192.066406 245.832031 C 191.476562 246.253906 191.03125 246.867188 190.046875 247.878906 C 192.027344 248.203125 193.367188 248.609375 194.707031 248.605469 C 198.027344 248.605469 201.339844 248.496094 204.65625 248.296875 C 212.253906 247.832031 219.140625 250.023438 225.550781 253.902344 C 226.617188 254.546875 227.214844 255.960938 228.039062 257.027344 C 227.703125 257.585938 227.367188 258.15625 227.023438 258.722656 C 225.957031 258.011719 224.972656 257.082031 223.804688 256.628906 C 219.691406 255.027344 215.621094 252.824219 211.347656 252.273438 C 203.808594 251.304688 196.132812 251.378906 188.507812 251.007812 C 186.199219 250.894531 184.304688 251.566406 182.652344 252.972656 L 168.550781 252.972656 C 166.628906 253.621094 164.679688 254.207031 162.785156 254.933594 C 158.195312 256.695312 153.753906 259.207031 149.007812 260.136719 C 143.175781 261.28125 137.097656 261.210938 131.109375 261.449219 C 130.011719 261.496094 128.863281 260.53125 127.734375 260.035156 C 127.835938 259.765625 127.9375 259.488281 128.039062 259.210938 C 137.855469 259.816406 147.609375 260.0625 156.4375 254.910156 C 156.414062 254.53125 156.386719 254.152344 156.363281 253.769531 C 153.34375 253.925781 150.335938 254.078125 147.324219 254.230469 C 147.953125 253.269531 148.675781 252.746094 149.476562 252.542969 C 154.921875 251.1875 160.367188 249.765625 165.867188 248.617188 C 170.273438 247.691406 175.109375 247.949219 179.128906 246.214844 C 186.683594 242.945312 193.832031 238.726562 201.03125 234.675781 C 203.285156 233.402344 205.132812 231.402344 207.5625 229.40625 C 203.410156 227.386719 199.785156 228.015625 196.234375 228.308594 C 182.78125 229.433594 169.691406 232.429688 156.769531 236.230469 C 145.546875 239.53125 134.640625 243.847656 122.949219 245.625 C 115.488281 246.757812 108.703125 250.148438 101.949219 255.019531 C 110.398438 256.246094 117.757812 253.070312 126.109375 251.914062 C 125.230469 252.910156 125.082031 253.191406 124.855469 253.328125 C 116.492188 258.167969 107.316406 259.457031 97.875 259.511719 C 96.90625 259.523438 95.667969 259.34375 95.019531 258.738281 C 93.839844 257.648438 92.539062 256.277344 92.214844 254.820312 C 92.035156 254.003906 93.539062 252.503906 94.601562 251.789062 C 95.722656 251.042969 97.210938 250.835938 98.546875 250.433594 C 103.050781 249.074219 107.699219 248.078125 112.035156 246.296875 C 119.152344 243.382812 126.265625 240.820312 134.0625 240.648438 C 135.609375 240.617188 137.164062 239.875 138.675781 239.359375 C 148.839844 235.886719 158.851562 231.859375 169.199219 229.066406 C 176.878906 226.988281 184.964844 226.277344 192.921875 225.394531 C 199.878906 224.625 206.878906 223.605469 213.902344 225.585938 C 215.488281 226.027344 217.761719 225.402344 219.261719 224.496094 C 224.730469 221.195312 228.960938 216.597656 231.335938 210.585938 C 235.226562 200.714844 232.472656 190.945312 225.675781 185.742188 C 217.886719 179.78125 208.636719 176.699219 198.632812 176.675781 C 197.335938 176.675781 196.035156 177.097656 194.109375 177.429688 C 195.414062 179.269531 196.398438 180.398438 197.054688 181.691406 C 197.398438 182.355469 197.15625 183.324219 197.175781 184.148438 C 196.453125 184.105469 195.644531 184.265625 195.019531 183.996094 C 187.324219 180.738281 179.328125 178.925781 170.976562 178.691406 C 169.824219 178.660156 168.691406 178.15625 167.53125 177.976562 C 165.421875 177.65625 162.9375 176.570312 161.257812 177.300781 C 156.234375 179.484375 151.457031 182.277344 146.71875 185.046875 C 141.296875 188.226562 136.371094 192.464844 129.347656 191.21875 C 121.429688 189.804688 113.730469 190.515625 106.625 194.675781 C 102.289062 197.222656 97.964844 199.800781 93.78125 202.601562 C 91.894531 203.863281 90.023438 205.445312 88.769531 207.3125 C 86.300781 210.964844 84.320312 214.949219 82.058594 218.746094 C 78.59375 224.558594 75.820312 230.714844 75.703125 237.515625 C 75.472656 250.949219 76.417969 264.214844 81.242188 277.042969 C 86.414062 290.8125 91.039062 304.804688 95.761719 318.738281 C 97.238281 323.09375 98.25 327.605469 99.472656 332.039062 C 100.007812 333.132812 100.539062 334.21875 101.074219 335.3125 C 102.171875 336.988281 103.402344 338.59375 104.339844 340.355469 C 109.890625 350.8125 118.484375 357.042969 129.953125 359.699219 C 139.519531 361.914062 148.730469 360.3125 157.902344 357.804688 C 159.535156 357.351562 161.554688 356.546875 162.382812 355.257812 C 164.722656 351.617188 167.921875 349.210938 171.554688 347.179688 C 174.097656 345.746094 176.609375 344.238281 179.203125 342.894531 C 180.386719 342.285156 181.734375 341.996094 183.007812 341.558594 C 183.3125 341.828125 183.621094 342.101562 183.929688 342.378906 C 182.753906 344.484375 181.582031 346.59375 180.269531 348.960938 C 186.429688 349.25 192.011719 349.511719 198.425781 349.816406 C 197.011719 348 195.960938 346.851562 195.148438 345.554688 C 193.535156 343.019531 191.65625 340.554688 190.601562 337.789062 C 187.121094 328.597656 187.363281 318.992188 188.21875 309.394531 C 188.359375 307.871094 188.09375 305.566406 190.5625 305.65625 C 190.886719 305.667969 191.578125 308.503906 191.296875 309.859375 C 189.125 320.148438 190.601562 329.730469 196.457031 338.5 C 200.730469 344.90625 205.75 350.363281 213.621094 352.4375 C 220.683594 354.300781 227.605469 353.6875 234.425781 351.648438 C 244.203125 348.71875 252.070312 343.238281 256.074219 333.417969 C 258.316406 327.898438 260.058594 322.175781 262.140625 316.59375 C 263.082031 314.058594 264.324219 311.636719 265.367188 309.140625 C 267.417969 304.234375 270.039062 299.445312 271.3125 294.328125 C 273.0625 287.335938 272.824219 280.222656 267.746094 274.277344 C 266.253906 272.53125 264.648438 270.757812 262.765625 269.5 Z M 262.765625 269.5 " fill-opacity="1" fill-rule="evenodd"/><path fill="#2949ff" d="M 75.066406 79.292969 C 75.523438 80.199219 77.242188 81.011719 78.3125 80.9375 C 80.210938 80.800781 82.066406 79.957031 84.9375 79.117188 C 83.570312 82.992188 83.046875 86.574219 81.195312 89.21875 C 78.328125 93.320312 78.21875 97.390625 79.910156 101.546875 C 84.289062 112.304688 88.921875 122.957031 93.535156 133.617188 C 94.902344 136.789062 96.617188 139.703125 101.667969 137.914062 C 101.078125 139.824219 100.550781 141.058594 100.332031 142.355469 C 99.898438 144.867188 98.917969 147.582031 99.453125 149.910156 C 100.488281 154.390625 102.097656 158.8125 104.082031 162.96875 C 105.617188 166.191406 107.625 169.480469 110.238281 171.828125 C 115.453125 176.519531 124.414062 173.792969 126.789062 166.878906 C 130.523438 155.988281 127.988281 145.757812 122.488281 136.132812 C 121.917969 135.132812 119.511719 134.257812 118.464844 134.65625 C 115.511719 135.769531 112.804688 137.546875 110.042969 139.132812 C 108.207031 140.183594 106.4375 141.355469 103.953125 142.902344 C 104.222656 137.332031 107.78125 135.203125 110.710938 132.902344 C 113.707031 130.550781 117.167969 128.789062 121.007812 126.402344 C 119.367188 126.65625 117.980469 126.558594 116.914062 127.097656 C 113.683594 128.714844 110.59375 130.617188 107.40625 132.335938 C 106.488281 132.824219 105.429688 133.058594 104.441406 133.414062 C 105.34375 129.554688 107.015625 126.871094 110.484375 125.710938 C 112.097656 125.164062 113.855469 124.671875 115.148438 123.648438 C 116.109375 122.886719 116.960938 121.292969 116.933594 120.089844 C 116.871094 116.871094 116.4375 113.640625 115.925781 110.460938 C 114.652344 102.582031 113.25 94.726562 109.105469 87.71875 C 106.113281 82.667969 101.746094 81.230469 96.617188 83.957031 C 92.988281 85.890625 89.628906 88.324219 86.0625 90.382812 C 85.277344 90.832031 84.128906 90.632812 83.148438 90.734375 C 83.554688 89.789062 83.710938 88.472656 84.421875 87.972656 C 86.796875 86.320312 89.320312 84.875 91.875 83.507812 C 93.550781 82.617188 95.371094 82.011719 97.128906 81.28125 C 97.019531 81.007812 96.914062 80.746094 96.808594 80.480469 C 93.8125 81.273438 90.820312 82.066406 87.824219 82.863281 C 87.660156 82.632812 87.496094 82.40625 87.335938 82.175781 C 87.761719 81.488281 88.035156 80.476562 88.652344 80.1875 C 91.070312 79.023438 93.523438 77.558594 96.105469 77.195312 C 101.363281 76.449219 101.410156 76.710938 101.5 71.375 C 101.515625 70.570312 101.414062 69.765625 101.34375 68.960938 C 100.445312 58.210938 97.183594 48.207031 91.832031 38.890625 C 89.324219 34.511719 86.285156 30.605469 80.929688 29.628906 C 78.792969 29.242188 76.601562 29.199219 74.4375 29 C 72.269531 30.070312 70.101562 31.140625 67.933594 32.210938 C 63.675781 36.964844 62.800781 42.503906 64.140625 48.570312 C 66.511719 59.269531 70.152344 69.523438 75.066406 79.292969 Z M 75.066406 79.292969 " fill-opacity="1" fill-rule="evenodd"/><path fill="#2949ff" d="M 370.265625 216.492188 C 369.730469 215.40625 369.199219 214.316406 368.664062 213.226562 C 368.210938 212.835938 367.660156 212.523438 367.324219 212.046875 C 364.453125 207.933594 360.523438 205.707031 355.636719 204.722656 C 349.960938 203.578125 344.382812 204.058594 338.921875 205.464844 C 332.070312 207.238281 326.558594 210.589844 322.617188 215.699219 L 322.589844 215.664062 C 322.367188 215.996094 322.144531 216.3125 321.917969 216.636719 C 321.628906 217.050781 321.335938 217.453125 321.066406 217.886719 C 318.15625 222.105469 315.257812 225.949219 312.503906 229.347656 C 310.765625 229.136719 310.378906 230.730469 310.019531 232.34375 C 301.5625 242.339844 295.050781 247.875 295.050781 247.875 L 294.664062 248.960938 C 290.054688 250.574219 285.757812 252.863281 281.476562 255.414062 C 276.140625 258.589844 274.542969 263.046875 274.398438 268.453125 C 274.277344 272.996094 275.246094 277.328125 278.074219 281.234375 C 281.269531 285.640625 285.179688 285.824219 288.53125 281.546875 C 290.558594 278.957031 292.832031 279.523438 295.359375 277.421875 C 299.21875 274.21875 303.273438 271.207031 307.46875 268.460938 C 311.421875 265.867188 313.210938 268.589844 312.910156 263.90625 C 312.859375 263.003906 313.394531 259.007812 313.65625 258.082031 C 313.960938 258.082031 314.269531 258.082031 314.578125 258.082031 C 315.707031 261.183594 316.914062 258.152344 317.933594 261.285156 C 319.046875 264.71875 319.21875 264.734375 322.003906 262.683594 C 323.835938 261.324219 325.941406 260.3125 327.980469 259.265625 C 337.960938 254.152344 349.097656 251.480469 357.820312 243.726562 C 366.085938 236.371094 372.75 228.644531 370.265625 216.492188 Z M 370.265625 216.492188 " fill-opacity="1" fill-rule="evenodd"/><path fill="#2949ff" d="M 146.316406 77.429688 C 147.125 82.273438 146.898438 87.054688 147.058594 91.882812 C 147.414062 102.726562 149.152344 113.535156 150.433594 124.339844 C 150.671875 126.355469 152.078125 126.96875 154.015625 126.234375 C 155.707031 125.585938 157.414062 124.976562 159.140625 124.453125 C 161.632812 123.691406 162.328125 124.402344 161.699219 127.113281 C 162.226562 127.0625 162.726562 126.945312 163.207031 126.988281 C 163.824219 127.035156 164.421875 127.214844 165.027344 127.332031 C 164.65625 127.9375 164.347656 128.613281 163.878906 129.128906 C 163.5625 129.480469 163.023438 129.664062 162.550781 129.832031 C 157.988281 131.492188 155.847656 135.199219 155.679688 139.640625 C 155.332031 148.632812 158.722656 156.378906 164.929688 162.804688 C 170.015625 168.058594 174.371094 167.5 178.484375 161.5 C 183.902344 153.597656 183.914062 144.78125 183.027344 135.820312 C 182.644531 131.9375 181.257812 130.828125 176.960938 129.929688 C 175.554688 129.636719 174.179688 129.234375 172.789062 128.882812 C 172.796875 128.378906 172.800781 127.871094 172.808594 127.371094 C 174.394531 127.257812 176.023438 126.863281 177.558594 127.109375 C 179.902344 127.488281 181.386719 126.644531 181.953125 124.511719 C 182.675781 121.789062 183.21875 119.011719 183.605469 116.222656 C 184.902344 106.671875 181.832031 97.636719 180.257812 88.417969 C 179.875 86.210938 178.183594 86.273438 176.824219 86.386719 C 171.429688 86.832031 166.058594 87.507812 160.671875 88.101562 C 159.585938 88.222656 158.46875 88.550781 157.410156 88.425781 C 156.75 88.359375 155.832031 87.746094 155.632812 87.167969 C 155.421875 86.570312 155.707031 85.375 156.1875 85.035156 C 159.902344 82.421875 163.511719 79.515625 167.574219 77.59375 C 170.253906 76.335938 173.636719 76.601562 176.6875 76.117188 C 178.988281 75.753906 180.1875 74.800781 179.699219 72.011719 C 178.398438 64.582031 177.363281 57.109375 176.328125 49.636719 C 175.210938 41.550781 174.390625 33.414062 173.082031 25.359375 C 172.433594 21.363281 170.230469 18.125 166.441406 16.113281 C 156.804688 10.980469 146.039062 19.640625 143.820312 27.585938 C 141.738281 35.042969 141.746094 42.800781 142.585938 50.449219 C 143.574219 59.472656 144.816406 68.476562 146.316406 77.429688 Z M 146.316406 77.429688 " fill-opacity="1" fill-rule="evenodd"/><path fill="#2949ff" d="M 208.566406 171.523438 C 213.742188 174.617188 219.988281 173.117188 223.546875 167.039062 C 226.476562 162.03125 231.714844 150.453125 233.84375 145.027344 C 235.1875 141.597656 233.554688 138.601562 230.453125 136.558594 C 226.695312 134.074219 220.828125 136.378906 216.425781 134.773438 C 216.335938 134.742188 216.351562 134.414062 216.195312 133.554688 C 217.664062 133.140625 219.21875 132.269531 220.71875 132.378906 C 224.105469 132.625 227.589844 132.957031 230.792969 133.996094 C 233.699219 134.941406 234.960938 134.125 236.132812 131.601562 C 239.898438 123.457031 240.246094 114.804688 239.980469 106.085938 C 239.941406 104.878906 238.695312 103.5625 237.730469 102.5625 C 236.296875 101.085938 234.625 99.84375 233.046875 98.507812 C 233.285156 98.132812 233.523438 97.757812 233.757812 97.386719 C 235.867188 98.199219 237.96875 99.011719 240.078125 99.828125 C 240.261719 99.496094 240.445312 99.160156 240.632812 98.828125 C 237.824219 97.164062 235.011719 95.503906 232.207031 93.847656 C 232.316406 93.464844 232.429688 93.082031 232.535156 92.695312 C 234.570312 92.917969 236.609375 93.039062 238.613281 93.386719 C 242.722656 94.09375 244.816406 92.355469 244.578125 88.300781 C 244.203125 81.867188 243.800781 75.425781 243.480469 68.988281 C 243.261719 64.582031 242.539062 60.035156 246.328125 56.519531 C 246.664062 56.210938 246.789062 55.609375 246.875 55.117188 C 248.238281 46.988281 248.792969 38.84375 246.136719 30.859375 C 244.199219 25.046875 237.726562 21.417969 231.914062 23.050781 C 225.191406 24.945312 220.726562 29.84375 219.117188 36.316406 C 216.25 47.894531 214.710938 59.738281 215.359375 71.765625 C 215.496094 74.453125 215.289062 77.15625 215.238281 79.847656 C 215.203125 82.097656 215.15625 84.347656 215.113281 86.671875 C 226.921875 84.945312 226.921875 84.945312 229.535156 87.171875 C 226.765625 87.855469 224.359375 88.457031 221.773438 89.101562 C 223.519531 90.203125 225.019531 91.15625 226.941406 92.363281 C 223.613281 94.6875 220.542969 94.070312 217.601562 94.074219 C 215.742188 94.074219 214.15625 94.289062 213.832031 96.5625 C 212.402344 106.566406 210.933594 116.5625 209.554688 126.578125 C 209.304688 128.414062 209.609375 130.039062 212.199219 129.84375 C 212.753906 129.796875 213.375 130.613281 213.972656 131.03125 C 213.535156 131.640625 213.21875 132.457031 212.621094 132.824219 C 211.28125 133.660156 209.796875 134.277344 208.371094 134.980469 C 208.605469 135.113281 208.839844 135.253906 209.070312 135.386719 C 208.234375 137.496094 206.957031 139.542969 206.644531 141.734375 C 205.625 148.8125 204.75 155.933594 204.257812 163.0625 C 204.027344 166.453125 205.316406 169.589844 208.566406 171.523438 Z M 208.566406 171.523438 " fill-opacity="1" fill-rule="evenodd"/><path fill="#2949ff" d="M 84.488281 187.121094 C 84.054688 180.929688 80.949219 175.753906 78.09375 170.582031 C 74.238281 163.605469 69.429688 157.304688 62.941406 152.441406 C 61.75 151.550781 60.984375 149.976562 60.253906 148.59375 C 59.125 146.472656 58.378906 144.152344 57.15625 142.101562 C 52.816406 134.824219 46.78125 129.074219 40.574219 123.425781 C 38.25 121.308594 36.304688 118.632812 34.671875 115.921875 C 31.074219 109.964844 27.855469 103.773438 24.339844 97.761719 C 21.308594 92.585938 15.078125 90.40625 9.691406 92.402344 C 5.683594 93.882812 3.652344 98.511719 4.34375 104.4375 C 5.089844 110.910156 7.953125 116.601562 10.898438 122.230469 C 12.515625 125.328125 14.375 125.863281 17.6875 124.605469 C 19.183594 124.035156 20.542969 123.074219 22.050781 122.566406 C 23.066406 122.226562 24.242188 122.378906 25.351562 122.3125 C 24.894531 123.285156 24.691406 124.601562 23.933594 125.179688 C 21.972656 126.6875 19.769531 127.886719 17.464844 129.320312 C 19.242188 132.625 19.882812 132.65625 22.054688 129.820312 C 22.570312 129.144531 23.585938 128.84375 24.371094 128.375 C 24.300781 129.328125 24.265625 130.289062 24.140625 131.242188 C 23.867188 133.261719 23.097656 135.34375 23.355469 137.289062 C 23.671875 139.636719 24.835938 141.871094 25.632812 144.15625 C 28.765625 153.246094 34.460938 160.160156 42.996094 164.59375 C 45.925781 166.109375 48.746094 166.097656 51.316406 163.589844 C 52.378906 162.554688 53.707031 161.777344 54.980469 160.996094 C 55.316406 160.789062 56.171875 160.828125 56.320312 161.066406 C 56.589844 161.484375 56.757812 162.3125 56.519531 162.648438 C 55.660156 163.859375 54.6875 165.019531 53.613281 166.046875 C 51.773438 167.820312 50.585938 169.714844 52.382812 172.117188 C 58.046875 179.675781 63.578125 187.347656 69.554688 194.652344 C 72.675781 198.457031 75.914062 198.738281 79.796875 196.84375 C 82.867188 195.355469 84.773438 191.207031 84.488281 187.121094 Z M 84.488281 187.121094 " fill-opacity="1" fill-rule="evenodd"/><path fill="#2949ff" d="M 237.105469 224.050781 C 235.875 222.152344 234.457031 222.605469 233.144531 224.007812 C 230.863281 226.464844 227.871094 226.96875 224.765625 227.628906 C 222.527344 228.089844 220.515625 229.621094 218.386719 230.636719 C 216.019531 231.761719 213.648438 232.894531 211.230469 233.914062 C 210.53125 234.207031 209.605469 233.949219 208.910156 234.25 C 208.238281 234.535156 207.738281 235.214844 207.15625 235.722656 C 207.71875 236.355469 208.261719 237.515625 208.839844 237.527344 C 211.164062 237.578125 213.554688 237.507812 215.832031 237.035156 C 218.253906 236.539062 220.554688 235.441406 222.949219 234.769531 C 226.109375 233.886719 229.308594 233.152344 232.496094 232.347656 C 232.4375 232.144531 232.375 231.9375 232.320312 231.730469 C 233.855469 230.972656 235.539062 230.417969 236.890625 229.414062 C 238.980469 227.851562 238.277344 225.851562 237.105469 224.050781 Z M 237.105469 224.050781 " fill-opacity="1" fill-rule="evenodd"/></svg>