<svg xmlns="http://www.w3.org/2000/svg" xmlns:xlink="http://www.w3.org/1999/xlink" width="500" zoomAndPan="magnify" viewBox="0 0 375 374.999991" height="500" preserveAspectRatio="xMidYMid meet" version="1.0"><path fill="#1d56e8" d="M 253.199219 65.699219 C 253.199219 102 187.5 187.5 187.5 187.5 C 187.5 187.5 121.800781 102 121.800781 65.699219 C 121.800781 29.398438 151.199219 0 187.5 0 C 223.800781 0 253.199219 29.398438 253.199219 65.699219 Z M 375 187.5 C 375 151.199219 345.601562 121.800781 309.300781 121.800781 C 273 121.800781 187.5 187.5 187.5 187.5 C 187.5 187.5 273 253.199219 309.300781 253.199219 C 345.601562 253.199219 375 223.800781 375 187.5 Z M 187.5 375 C 223.800781 375 253.199219 345.601562 253.199219 309.300781 C 253.199219 273 187.5 187.5 187.5 187.5 C 187.5 187.5 121.800781 273 121.800781 309.300781 C 121.800781 345.601562 151.199219 375 187.5 375 Z M 0 187.5 C 0 223.800781 29.398438 253.199219 65.699219 253.199219 C 102 253.199219 187.5 187.5 187.5 187.5 C 187.5 187.5 102 121.800781 65.699219 121.800781 C 29.398438 121.800781 0 151.199219 0 187.5 Z M 0 187.5 " fill-opacity="1" fill-rule="nonzero"/></svg>