<svg xmlns="http://www.w3.org/2000/svg" xmlns:xlink="http://www.w3.org/1999/xlink" width="500" zoomAndPan="magnify" viewBox="0 0 375 374.999991" height="500" preserveAspectRatio="xMidYMid meet" version="1.0"><defs><clipPath id="92dd32e858"><path d="M 25.078125 0 L 349.828125 0 L 349.828125 188 L 25.078125 188 Z M 25.078125 0 " clip-rule="nonzero"/></clipPath><clipPath id="8fa13125e1"><path d="M 25.078125 93 L 188 93 L 188 375 L 25.078125 375 Z M 25.078125 93 " clip-rule="nonzero"/></clipPath><clipPath id="3d5140f993"><path d="M 187 93 L 349.828125 93 L 349.828125 375 L 187 375 Z M 187 93 " clip-rule="nonzero"/></clipPath></defs><g clip-path="url(#92dd32e858)"><path fill="#0a2240" d="M 187.453125 187.5 L 25.125 93.75 L 187.453125 0 L 349.78125 93.75 Z M 187.453125 187.5 " fill-opacity="1" fill-rule="nonzero"/></g><g clip-path="url(#8fa13125e1)"><path fill="#c4d0f2" d="M 187.453125 187.5 L 187.453125 375 L 25.125 281.25 L 25.125 93.75 Z M 187.453125 187.5 " fill-opacity="1" fill-rule="nonzero"/></g><g clip-path="url(#3d5140f993)"><path fill="#2949ff" d="M 349.78125 93.75 L 349.78125 281.25 L 187.453125 375 L 187.453125 187.5 Z M 349.78125 93.75 " fill-opacity="1" fill-rule="nonzero"/></g></svg>