<svg xmlns="http://www.w3.org/2000/svg" xmlns:xlink="http://www.w3.org/1999/xlink" width="500" zoomAndPan="magnify" viewBox="0 0 375 374.999991" height="500" preserveAspectRatio="xMidYMid meet" version="1.0"><defs><clipPath id="006fec660d"><path d="M 28 193.574219 L 347 193.574219 L 347 374.941406 L 28 374.941406 Z M 28 193.574219 " clip-rule="nonzero"/></clipPath></defs><path fill="#102a43" d="M 193.125 184.195312 L 352.640625 276.292969 C 366.894531 249.84375 375 219.589844 375 187.441406 C 375 85.773438 294.070312 3.0625 193.125 0.0820312 L 193.125 184.195312 " fill-opacity="1" fill-rule="nonzero"/><g clip-path="url(#006fec660d)"><path fill="#102a43" d="M 187.5 193.933594 L 28.007812 286.011719 C 61.0625 339.378906 120.117188 374.941406 187.5 374.941406 C 254.882812 374.941406 313.933594 339.378906 346.984375 286.011719 L 187.5 193.933594 " fill-opacity="1" fill-rule="nonzero"/></g><path fill="#102a43" d="M 181.875 184.195312 L 181.875 0.0820312 C 80.929688 3.0625 0 85.773438 0 187.441406 C 0 219.589844 8.105469 249.84375 22.359375 276.292969 L 181.875 184.195312 " fill-opacity="1" fill-rule="nonzero"/></svg>