<svg xmlns="http://www.w3.org/2000/svg" xmlns:xlink="http://www.w3.org/1999/xlink" width="500" zoomAndPan="magnify" viewBox="0 0 375 374.999991" height="500" preserveAspectRatio="xMidYMid meet" version="1.0"><defs><clipPath id="5f4ef2b5d7"><path d="M 112.5 112.5 L 262.5 112.5 L 262.5 262.5 L 112.5 262.5 Z M 112.5 112.5 " clip-rule="nonzero"/></clipPath></defs><path fill="#5271ff" d="M 375 187.5 C 375 158.671875 354.199219 134.71875 326.816406 129.792969 C 342.710938 106.933594 340.460938 75.285156 320.089844 54.910156 C 299.714844 34.539062 268.066406 32.289062 245.207031 48.183594 C 240.28125 20.777344 216.328125 0 187.5 0 C 158.671875 0 134.71875 20.800781 129.792969 48.183594 C 106.933594 32.289062 75.285156 34.539062 54.910156 54.910156 C 34.539062 75.285156 32.289062 106.933594 48.183594 129.792969 C 20.777344 134.71875 0 158.671875 0 187.5 C 0 216.328125 20.800781 240.28125 48.183594 245.207031 C 32.289062 268.066406 34.539062 299.714844 54.910156 320.089844 C 75.285156 340.460938 106.933594 342.710938 129.792969 326.816406 C 134.71875 354.222656 158.671875 375 187.5 375 C 216.328125 375 240.28125 354.199219 245.207031 326.816406 C 268.066406 342.710938 299.714844 340.460938 320.089844 320.089844 C 340.460938 299.714844 342.710938 268.066406 326.816406 245.207031 C 354.222656 240.28125 375 216.328125 375 187.5 Z M 375 187.5 " fill-opacity="1" fill-rule="nonzero"/><g clip-path="url(#5f4ef2b5d7)"><path fill="#ffffff" d="M 187.5 112.5 C 146.105469 112.5 112.5 146.105469 112.5 187.5 C 112.5 228.894531 146.105469 262.5 187.5 262.5 C 228.894531 262.5 262.5 228.894531 262.5 187.5 C 262.5 146.105469 228.894531 112.5 187.5 112.5 Z M 176.542969 183.769531 C 175.246094 198.644531 171.835938 213.070312 166.515625 227.097656 C 165.21875 230.523438 166.945312 234.355469 170.371094 235.652344 C 173.792969 236.953125 177.628906 235.226562 178.925781 231.800781 C 182.691406 221.871094 185.566406 211.757812 187.5 201.441406 C 189.433594 211.757812 192.3125 221.871094 196.074219 231.800781 C 197.375 235.226562 201.207031 236.953125 204.632812 235.652344 C 208.058594 234.355469 209.785156 230.523438 208.484375 227.097656 C 203.171875 213.078125 199.757812 198.660156 198.460938 183.796875 C 206.410156 183.40625 214.363281 182.574219 222.3125 181.28125 C 225.929688 180.691406 228.386719 177.28125 227.800781 173.667969 C 227.210938 170.054688 223.800781 167.59375 220.183594 168.183594 C 198.382812 171.726562 176.578125 171.585938 154.777344 168.175781 C 151.160156 167.609375 147.761719 170.089844 147.195312 173.707031 C 146.628906 177.324219 149.109375 180.722656 152.726562 181.285156 C 160.664062 182.527344 168.601562 183.363281 176.542969 183.769531 Z M 187.5 141.3125 C 194.113281 141.3125 199.476562 146.679688 199.476562 153.289062 C 199.476562 159.898438 194.113281 165.265625 187.5 165.265625 C 180.890625 165.265625 175.523438 159.898438 175.523438 153.289062 C 175.523438 146.679688 180.890625 141.3125 187.5 141.3125 Z M 187.5 141.3125 " fill-opacity="1" fill-rule="evenodd"/></g></svg>