<svg xmlns="http://www.w3.org/2000/svg" xmlns:xlink="http://www.w3.org/1999/xlink" width="1080" zoomAndPan="magnify" viewBox="0 0 810 809.999993" height="1080" preserveAspectRatio="xMidYMid meet" version="1.0"><defs><clipPath id="5a88813354"><path d="M 127.601562 1 L 682.601562 1 L 682.601562 809 L 127.601562 809 Z M 127.601562 1 " clip-rule="nonzero"/></clipPath></defs><g clip-path="url(#5a88813354)"><path fill="#102a43" d="M 639.875 808.402344 C 547.550781 808.402344 456.949219 808.402344 365.265625 808.402344 C 365.265625 793.835938 363.667969 779.425781 365.558594 765.53125 C 371.398438 722.417969 357.210938 689.042969 322.179688 663.15625 C 302.886719 648.875 284.71875 632.859375 267.335938 616.292969 C 240.628906 590.839844 224.054688 558.320312 208.222656 525.585938 C 187.109375 481.878906 165.992188 438.277344 135.234375 400.054688 C 120.539062 381.746094 127.875 361.386719 150.300781 354.460938 C 173.90625 347.210938 194.542969 353.808594 212.394531 369.644531 C 239.457031 393.617188 256.882812 424.527344 273.671875 455.847656 C 276.980469 462.019531 281.410156 468.109375 286.777344 472.453125 C 294.390625 478.59375 300.140625 475.894531 301.894531 466.351562 C 302.949219 460.597656 303.792969 454.613281 303.597656 448.78125 C 300.789062 361.085938 297.828125 273.394531 294.78125 185.671875 C 293.785156 157.019531 292.265625 128.347656 291.300781 99.679688 C 290.828125 85.503906 295.152344 72.972656 306.296875 63.578125 C 326.730469 46.308594 353.960938 54.652344 358.992188 80.800781 C 362.894531 100.988281 364.347656 121.734375 365.820312 142.308594 C 369.671875 196.585938 372.914062 250.859375 376.492188 305.152344 C 376.742188 308.917969 376.625 313.523438 378.671875 316.164062 C 381.921875 320.351562 386.859375 325.878906 391.101562 325.902344 C 395.472656 325.902344 400.847656 320.734375 403.921875 316.46875 C 405.996094 313.597656 405.074219 308.363281 405.109375 304.199219 C 405.558594 222.261719 405.894531 140.328125 406.390625 58.410156 C 406.441406 49.964844 407.035156 41.550781 407.855469 33.167969 C 409.652344 15.195312 424.648438 1.925781 443.148438 1.605469 C 462.550781 1.273438 475.871094 12.546875 477.734375 32.550781 C 479.324219 49.320312 479.910156 66.25 480.082031 83.097656 C 481.03125 157.390625 481.675781 231.691406 482.441406 306 C 482.457031 308.515625 481.675781 311.914062 482.96875 313.429688 C 486.820312 317.828125 491.515625 321.441406 495.839844 325.394531 C 499.476562 320.941406 505.886719 316.667969 506.195312 311.988281 C 508.828125 275.382812 510.074219 238.699219 512.089844 202.039062 C 514.183594 163.746094 516.136719 125.371094 519.109375 87.140625 C 520.929688 63.785156 532.898438 51.972656 551.132812 52.785156 C 571.140625 53.660156 588.597656 70.699219 589.03125 91.664062 C 589.550781 114.847656 588.828125 138.09375 588.121094 161.296875 C 586.621094 209.800781 584.789062 258.292969 583.058594 306.765625 C 582.742188 316.054688 581.863281 325.285156 581.753906 334.554688 C 581.679688 342.695312 585.144531 348.691406 594.179688 348.984375 C 602.914062 349.257812 605.3125 343.527344 606 335.816406 C 610.007812 289.210938 614.191406 242.589844 618.332031 196.019531 C 619.765625 180.113281 619.992188 163.890625 623.265625 148.339844 C 627.734375 126.832031 649.53125 120.109375 664.304688 136.21875 C 672.269531 144.902344 678.75 157.828125 679.917969 169.457031 C 686.136719 230.609375 680.519531 291.476562 674.011719 352.421875 C 672.046875 371.027344 674.1875 390.316406 675.976562 409.128906 C 684.722656 500.691406 683.367188 590.863281 646.316406 677.566406 C 633.222656 708.234375 637.148438 741.433594 638.308594 773.855469 C 638.652344 785.078125 639.308594 796.277344 639.875 808.402344 Z M 639.875 808.402344 " fill-opacity="1" fill-rule="nonzero"/></g></svg>