<svg xmlns="http://www.w3.org/2000/svg" xmlns:xlink="http://www.w3.org/1999/xlink" width="1080" zoomAndPan="magnify" viewBox="0 0 810 809.999993" height="1080" preserveAspectRatio="xMidYMid meet" version="1.0"><defs><clipPath id="695a08fb9b"><path d="M 48 0 L 765.757812 0 L 765.757812 810 L 48 810 Z M 48 0 " clip-rule="nonzero"/></clipPath></defs><g clip-path="url(#695a08fb9b)"><path fill="#102a43" d="M 681.078125 809.4375 C 678.488281 803.40625 676.367188 798.648438 674.371094 793.816406 C 654.945312 746.8125 648.660156 697.613281 651.714844 647.292969 C 655.628906 582.789062 679.207031 524.863281 714.621094 471.589844 C 763.046875 398.699219 777.605469 319.820312 756.039062 235.199219 C 728.199219 126.015625 664.710938 47.109375 553.625 16.402344 C 511.292969 4.703125 465.679688 2.921875 421.371094 0.960938 C 378.058594 -0.953125 334.652344 3.773438 293.730469 20.71875 C 228.671875 47.644531 172.316406 84.539062 146.539062 154.339844 C 134.441406 187.105469 124.015625 220.515625 113.78125 253.925781 C 107.714844 273.734375 107.890625 293.558594 117.632812 312.917969 C 124.117188 325.835938 123.78125 338.949219 114.820312 351.5625 C 95.195312 379.175781 76.070312 407.148438 56.761719 434.988281 C 42.285156 455.882812 46.320312 473.042969 68.839844 484.773438 C 74.589844 487.773438 80.792969 490.457031 87.097656 491.691406 C 99.425781 494.109375 101.992188 502.695312 97.480469 511.484375 C 87.378906 531.203125 93.761719 545.402344 105.867188 554.101562 C 106.460938 566.894531 103.550781 578.179688 107.917969 583.9375 C 119.15625 598.765625 120.199219 612.855469 116.292969 630.394531 C 107.8125 668.511719 126.144531 696.503906 164.644531 703.199219 C 190.289062 707.65625 216.65625 707.757812 242.648438 710.269531 C 276.441406 713.550781 289.054688 727.96875 290.609375 761.632812 C 291.335938 777.4375 294.539062 793.121094 296.703125 809.4375 C 425.453125 809.4375 552.457031 809.4375 681.078125 809.4375 Z M 681.078125 809.4375 " fill-opacity="1" fill-rule="nonzero"/></g><path fill="#f0f4f8" d="M 716.054688 262.535156 C 716.054688 266.351562 715.945312 270.167969 715.726562 273.980469 C 715.503906 277.796875 715.171875 281.601562 714.734375 285.402344 C 714.292969 289.203125 713.742188 292.988281 713.082031 296.765625 C 712.421875 300.542969 711.65625 304.304688 710.777344 308.050781 C 709.902344 311.792969 708.917969 315.519531 707.824219 319.222656 C 706.730469 322.925781 705.53125 326.605469 704.226562 330.257812 C 702.921875 333.914062 701.511719 337.539062 700 341.132812 C 698.484375 344.726562 696.867188 348.289062 695.148438 351.816406 C 693.425781 355.34375 691.605469 358.832031 689.683594 362.285156 C 687.761719 365.738281 685.742188 369.144531 683.621094 372.511719 C 681.503906 375.878906 679.289062 379.203125 676.976562 382.476562 C 674.664062 385.75 672.261719 388.976562 669.761719 392.152344 C 667.265625 395.324219 664.679688 398.445312 662 401.515625 C 659.324219 404.582031 656.558594 407.589844 653.707031 410.542969 C 650.855469 413.492188 647.917969 416.382812 644.898438 419.210938 C 641.882812 422.042969 638.78125 424.804688 635.601562 427.503906 C 632.425781 430.207031 629.167969 432.835938 625.839844 435.402344 C 622.507812 437.964844 619.105469 440.460938 615.628906 442.882812 C 612.15625 445.304688 608.613281 447.652344 605 449.925781 C 601.390625 452.199219 597.71875 454.398438 593.980469 456.519531 C 590.242188 458.640625 586.445312 460.683594 582.589844 462.644531 C 578.734375 464.609375 574.824219 466.492188 570.859375 468.289062 C 566.894531 470.089844 562.878906 471.808594 558.816406 473.4375 C 554.753906 475.070312 550.644531 476.617188 546.492188 478.078125 C 542.335938 479.539062 538.144531 480.914062 533.910156 482.199219 C 529.679688 483.488281 525.410156 484.683594 521.109375 485.792969 C 516.808594 486.902344 512.476562 487.917969 508.117188 488.847656 C 503.753906 489.773438 499.371094 490.609375 494.960938 491.355469 C 490.554688 492.101562 486.125 492.753906 481.679688 493.3125 C 477.230469 493.875 472.773438 494.339844 468.296875 494.714844 C 463.824219 495.089844 459.34375 495.371094 454.851562 495.558594 C 450.363281 495.746094 445.871094 495.839844 441.375 495.839844 C 436.878906 495.839844 432.386719 495.746094 427.894531 495.558594 C 423.40625 495.371094 418.925781 495.089844 414.449219 494.714844 C 409.976562 494.339844 405.515625 493.875 401.070312 493.3125 C 396.625 492.753906 392.195312 492.101562 387.785156 491.355469 C 383.378906 490.609375 378.992188 489.773438 374.632812 488.847656 C 370.273438 487.917969 365.941406 486.902344 361.636719 485.792969 C 357.335938 484.683594 353.070312 483.488281 348.835938 482.199219 C 344.605469 480.914062 340.410156 479.539062 336.257812 478.078125 C 332.105469 476.617188 327.996094 475.070312 323.933594 473.4375 C 319.871094 471.808594 315.855469 470.089844 311.890625 468.289062 C 307.925781 466.492188 304.015625 464.609375 300.160156 462.644531 C 296.304688 460.683594 292.507812 458.640625 288.769531 456.519531 C 285.03125 454.398438 281.359375 452.199219 277.746094 449.925781 C 274.136719 447.652344 270.59375 445.304688 267.117188 442.882812 C 263.644531 440.460938 260.242188 437.964844 256.910156 435.402344 C 253.578125 432.835938 250.324219 430.207031 247.144531 427.503906 C 243.964844 424.804688 240.867188 422.042969 237.847656 419.210938 C 234.832031 416.382812 231.894531 413.492188 229.042969 410.542969 C 226.191406 407.589844 223.425781 404.582031 220.75 401.515625 C 218.070312 398.445312 215.484375 395.324219 212.984375 392.152344 C 210.488281 388.976562 208.082031 385.75 205.773438 382.476562 C 203.460938 379.203125 201.246094 375.878906 199.128906 372.511719 C 197.007812 369.144531 194.988281 365.738281 193.066406 362.285156 C 191.144531 358.832031 189.320312 355.34375 187.601562 351.816406 C 185.882812 348.289062 184.265625 344.726562 182.75 341.132812 C 181.234375 337.539062 179.824219 333.914062 178.519531 330.257812 C 177.214844 326.605469 176.015625 322.925781 174.925781 319.222656 C 173.832031 315.519531 172.847656 311.792969 171.972656 308.050781 C 171.09375 304.304688 170.324219 300.542969 169.667969 296.765625 C 169.007812 292.988281 168.457031 289.203125 168.015625 285.402344 C 167.574219 281.601562 167.246094 277.796875 167.023438 273.980469 C 166.804688 270.167969 166.691406 266.351562 166.691406 262.535156 C 166.691406 258.714844 166.804688 254.898438 167.023438 251.085938 C 167.246094 247.273438 167.574219 243.464844 168.015625 239.667969 C 168.457031 235.867188 169.007812 232.078125 169.667969 228.300781 C 170.324219 224.523438 171.09375 220.761719 171.972656 217.019531 C 172.847656 213.273438 173.832031 209.550781 174.925781 205.84375 C 176.015625 202.140625 177.214844 198.464844 178.519531 194.808594 C 179.824219 191.15625 181.234375 187.53125 182.75 183.9375 C 184.265625 180.339844 185.882812 176.78125 187.601562 173.253906 C 189.320312 169.726562 191.144531 166.234375 193.066406 162.785156 C 194.988281 159.332031 197.007812 155.921875 199.128906 152.554688 C 201.246094 149.1875 203.460938 145.867188 205.773438 142.589844 C 208.082031 139.316406 210.488281 136.089844 212.984375 132.917969 C 215.484375 129.742188 218.070312 126.621094 220.75 123.554688 C 223.425781 120.488281 226.191406 117.480469 229.042969 114.527344 C 231.894531 111.574219 234.832031 108.683594 237.847656 105.855469 C 240.867188 103.027344 243.964844 100.261719 247.144531 97.5625 C 250.324219 94.863281 253.578125 92.230469 256.910156 89.667969 C 260.242188 87.101562 263.644531 84.609375 267.117188 82.1875 C 270.59375 79.765625 274.136719 77.417969 277.746094 75.140625 C 281.359375 72.867188 285.03125 70.667969 288.769531 68.546875 C 292.507812 66.425781 296.304688 64.386719 300.160156 62.421875 C 304.015625 60.457031 307.925781 58.578125 311.890625 56.777344 C 315.855469 54.976562 319.871094 53.261719 323.933594 51.628906 C 327.996094 49.996094 332.105469 48.449219 336.257812 46.988281 C 340.410156 45.527344 344.605469 44.152344 348.835938 42.867188 C 353.070312 41.582031 357.335938 40.382812 361.636719 39.273438 C 365.941406 38.167969 370.273438 37.148438 374.632812 36.222656 C 378.992188 35.292969 383.378906 34.457031 387.785156 33.710938 C 392.195312 32.96875 396.625 32.316406 401.070312 31.753906 C 405.515625 31.195312 409.976562 30.726562 414.449219 30.351562 C 418.925781 29.976562 423.40625 29.699219 427.894531 29.511719 C 432.386719 29.324219 436.878906 29.230469 441.375 29.230469 C 445.871094 29.230469 450.363281 29.324219 454.851562 29.511719 C 459.34375 29.699219 463.824219 29.976562 468.296875 30.351562 C 472.773438 30.726562 477.230469 31.195312 481.679688 31.753906 C 486.125 32.316406 490.554688 32.96875 494.960938 33.710938 C 499.371094 34.457031 503.757812 35.292969 508.117188 36.222656 C 512.476562 37.148438 516.808594 38.167969 521.109375 39.273438 C 525.410156 40.382812 529.679688 41.582031 533.910156 42.867188 C 538.144531 44.152344 542.335938 45.527344 546.492188 46.988281 C 550.644531 48.449219 554.753906 49.996094 558.816406 51.628906 C 562.878906 53.261719 566.894531 54.976562 570.859375 56.777344 C 574.824219 58.578125 578.734375 60.457031 582.589844 62.421875 C 586.445312 64.386719 590.242188 66.425781 593.980469 68.546875 C 597.71875 70.667969 601.390625 72.867188 605 75.140625 C 608.613281 77.417969 612.15625 79.765625 615.628906 82.1875 C 619.105469 84.609375 622.507812 87.101562 625.839844 89.667969 C 629.167969 92.230469 632.425781 94.863281 635.601562 97.5625 C 638.78125 100.261719 641.882812 103.027344 644.898438 105.855469 C 647.917969 108.683594 650.855469 111.574219 653.707031 114.527344 C 656.558594 117.480469 659.324219 120.488281 662 123.554688 C 664.679688 126.621094 667.265625 129.742188 669.761719 132.917969 C 672.261719 136.089844 674.664062 139.316406 676.976562 142.589844 C 679.289062 145.867188 681.503906 149.1875 683.621094 152.554688 C 685.742188 155.921875 687.761719 159.332031 689.683594 162.785156 C 691.605469 166.234375 693.425781 169.726562 695.148438 173.253906 C 696.867188 176.78125 698.484375 180.339844 700 183.9375 C 701.511719 187.53125 702.921875 191.15625 704.226562 194.808594 C 705.53125 198.464844 706.730469 202.140625 707.824219 205.84375 C 708.917969 209.550781 709.902344 213.273438 710.777344 217.019531 C 711.65625 220.761719 712.421875 224.523438 713.082031 228.300781 C 713.742188 232.078125 714.292969 235.867188 714.734375 239.667969 C 715.171875 243.464844 715.503906 247.273438 715.726562 251.085938 C 715.945312 254.898438 716.054688 258.714844 716.054688 262.535156 Z M 716.054688 262.535156 " fill-opacity="1" fill-rule="nonzero"/></svg>