<svg xmlns="http://www.w3.org/2000/svg" xmlns:xlink="http://www.w3.org/1999/xlink" width="1080" zoomAndPan="magnify" viewBox="0 0 810 809.999993" height="1080" preserveAspectRatio="xMidYMid meet" version="1.0"><defs><clipPath id="86d6512376"><path d="M 15 75 L 810 75 L 810 750.730469 L 15 750.730469 Z M 15 75 " clip-rule="nonzero"/></clipPath></defs><g clip-path="url(#86d6512376)"><path fill="#102a43" d="M 809.597656 274.023438 C 809.597656 270.773438 809.519531 267.527344 809.359375 264.285156 C 809.199219 261.042969 808.960938 257.804688 808.640625 254.574219 C 808.324219 251.339844 807.925781 248.117188 807.449219 244.90625 C 806.972656 241.695312 806.417969 238.496094 805.785156 235.3125 C 805.152344 232.125 804.441406 228.957031 803.648438 225.808594 C 802.863281 222.660156 801.996094 219.53125 801.054688 216.421875 C 800.109375 213.316406 799.089844 210.230469 797.996094 207.175781 C 796.902344 204.117188 795.734375 201.089844 794.492188 198.089844 C 793.25 195.089844 791.933594 192.121094 790.546875 189.183594 C 789.15625 186.25 787.699219 183.347656 786.167969 180.484375 C 784.636719 177.621094 783.035156 174.796875 781.367188 172.011719 C 779.695312 169.226562 777.960938 166.484375 776.15625 163.785156 C 774.351562 161.082031 772.480469 158.429688 770.546875 155.820312 C 768.613281 153.210938 766.613281 150.652344 764.554688 148.144531 C 762.496094 145.632812 760.375 143.175781 758.191406 140.769531 C 756.011719 138.363281 753.773438 136.011719 751.476562 133.714844 C 749.179688 131.417969 746.828125 129.179688 744.421875 127 C 742.015625 124.820312 739.558594 122.699219 737.046875 120.636719 C 734.539062 118.578125 731.980469 116.582031 729.371094 114.644531 C 726.761719 112.710938 724.109375 110.84375 721.40625 109.039062 C 718.707031 107.234375 715.964844 105.496094 713.179688 103.828125 C 710.394531 102.160156 707.570312 100.558594 704.703125 99.027344 C 701.839844 97.496094 698.941406 96.039062 696.003906 94.648438 C 693.070312 93.261719 690.101562 91.945312 687.101562 90.703125 C 684.101562 89.460938 681.070312 88.292969 678.015625 87.195312 C 674.957031 86.101562 671.875 85.085938 668.765625 84.140625 C 665.660156 83.199219 662.527344 82.332031 659.378906 81.542969 C 656.230469 80.753906 653.0625 80.042969 649.875 79.410156 C 646.691406 78.777344 643.492188 78.222656 640.28125 77.746094 C 637.066406 77.269531 633.84375 76.871094 630.613281 76.554688 C 627.382812 76.234375 624.144531 75.996094 620.898438 75.835938 C 617.65625 75.675781 614.410156 75.597656 611.164062 75.597656 C 607.917969 75.597656 604.671875 75.675781 601.425781 75.835938 C 598.183594 75.996094 594.945312 76.234375 591.714844 76.554688 C 588.480469 76.871094 585.257812 77.269531 582.046875 77.746094 C 578.835938 78.222656 575.636719 78.777344 572.449219 79.410156 C 569.265625 80.042969 566.097656 80.753906 562.949219 81.542969 C 559.796875 82.332031 556.667969 83.199219 553.5625 84.140625 C 550.453125 85.085938 547.371094 86.101562 544.3125 87.195312 C 541.253906 88.292969 538.226562 89.460938 535.226562 90.703125 C 532.226562 91.945312 529.257812 93.261719 526.320312 94.648438 C 523.386719 96.039062 520.488281 97.496094 517.621094 99.027344 C 514.757812 100.558594 511.933594 102.160156 509.148438 103.828125 C 506.363281 105.496094 503.621094 107.234375 500.917969 109.039062 C 498.21875 110.84375 495.566406 112.710938 492.957031 114.644531 C 490.347656 116.582031 487.789062 118.578125 485.277344 120.636719 C 482.769531 122.699219 480.308594 124.820312 477.902344 127 C 475.496094 129.179688 473.144531 131.417969 470.851562 133.714844 C 468.554688 136.011719 466.316406 138.363281 464.132812 140.769531 C 461.953125 143.175781 459.832031 145.632812 457.773438 148.144531 C 455.710938 150.652344 453.714844 153.210938 451.78125 155.820312 C 449.84375 158.429688 447.976562 161.082031 446.171875 163.785156 C 444.367188 166.484375 442.628906 169.226562 440.960938 172.011719 C 439.292969 174.796875 437.691406 177.621094 436.160156 180.484375 C 434.628906 183.347656 433.171875 186.25 431.78125 189.183594 C 430.394531 192.121094 429.078125 195.089844 427.835938 198.089844 C 426.59375 201.089844 425.421875 204.117188 424.328125 207.175781 C 423.234375 210.230469 422.21875 213.316406 421.273438 216.421875 C 420.332031 219.53125 419.464844 222.660156 418.675781 225.808594 C 417.886719 228.957031 417.175781 232.125 416.542969 235.3125 C 415.910156 238.496094 415.355469 241.695312 414.878906 244.90625 C 414.402344 248.117188 414.003906 251.339844 413.683594 254.574219 C 413.367188 257.804688 413.128906 261.042969 412.96875 264.285156 C 412.808594 267.527344 412.730469 270.773438 412.730469 274.023438 C 412.730469 270.265625 412.625 266.507812 412.410156 262.757812 C 412.199219 259.007812 411.878906 255.265625 411.453125 251.53125 C 411.027344 247.796875 410.496094 244.078125 409.859375 240.375 C 409.222656 236.671875 408.480469 232.988281 407.636719 229.328125 C 406.789062 225.667969 405.839844 222.03125 404.789062 218.425781 C 403.734375 214.820312 402.582031 211.246094 401.328125 207.703125 C 400.070312 204.160156 398.714844 200.65625 397.261719 197.191406 C 395.808594 193.726562 394.253906 190.308594 392.605469 186.929688 C 390.957031 183.554688 389.214844 180.226562 387.375 176.949219 C 385.539062 173.671875 383.609375 170.449219 381.585938 167.28125 C 379.566406 164.113281 377.457031 161.007812 375.257812 157.957031 C 373.0625 154.910156 370.78125 151.925781 368.414062 149.007812 C 366.046875 146.089844 363.597656 143.242188 361.070312 140.460938 C 358.539062 137.683594 355.933594 134.976562 353.25 132.34375 C 350.570312 129.714844 347.8125 127.160156 344.984375 124.6875 C 342.15625 122.210938 339.261719 119.820312 336.296875 117.507812 C 333.335938 115.199219 330.308594 112.972656 327.21875 110.835938 C 324.128906 108.699219 320.980469 106.648438 317.773438 104.6875 C 314.566406 102.730469 311.308594 100.863281 307.996094 99.089844 C 304.683594 97.3125 301.324219 95.636719 297.914062 94.050781 C 294.507812 92.46875 291.054688 90.984375 287.5625 89.59375 C 284.070312 88.207031 280.542969 86.921875 276.976562 85.734375 C 273.414062 84.546875 269.816406 83.460938 266.1875 82.480469 C 262.5625 81.496094 258.910156 80.617188 255.234375 79.84375 C 251.554688 79.066406 247.859375 78.398438 244.144531 77.832031 C 240.429688 77.265625 236.703125 76.808594 232.960938 76.453125 C 229.21875 76.101562 225.472656 75.855469 221.714844 75.714844 C 217.960938 75.574219 214.203125 75.539062 210.449219 75.613281 C 206.691406 75.683594 202.9375 75.863281 199.191406 76.148438 C 195.445312 76.4375 191.710938 76.828125 187.984375 77.328125 C 184.261719 77.824219 180.550781 78.429688 176.863281 79.136719 C 173.171875 79.847656 169.503906 80.660156 165.859375 81.578125 C 162.214844 82.492188 158.601562 83.511719 155.015625 84.636719 C 151.429688 85.757812 147.878906 86.980469 144.359375 88.304688 C 140.84375 89.628906 137.367188 91.054688 133.933594 92.574219 C 130.496094 94.097656 127.105469 95.714844 123.761719 97.429688 C 120.417969 99.144531 117.125 100.953125 113.882812 102.851562 C 110.644531 104.753906 107.457031 106.746094 104.332031 108.828125 C 101.203125 110.910156 98.136719 113.082031 95.132812 115.335938 C 92.125 117.59375 89.1875 119.933594 86.316406 122.355469 C 83.445312 124.78125 80.644531 127.285156 77.914062 129.867188 C 75.183594 132.449219 72.53125 135.105469 69.953125 137.839844 C 67.375 140.574219 64.875 143.378906 62.457031 146.253906 C 60.035156 149.128906 57.699219 152.070312 55.449219 155.078125 C 53.195312 158.085938 51.03125 161.15625 48.953125 164.285156 C 46.875 167.417969 44.886719 170.605469 42.992188 173.847656 C 41.09375 177.09375 39.292969 180.386719 37.582031 183.734375 C 35.875 187.082031 34.261719 190.472656 32.742188 193.910156 C 31.226562 197.347656 29.808594 200.828125 28.488281 204.34375 C 27.171875 207.863281 25.953125 211.417969 24.835938 215.003906 C 23.71875 218.59375 22.703125 222.207031 21.792969 225.855469 C 20.878906 229.5 20.074219 233.167969 19.371094 236.859375 C 18.664062 240.550781 18.066406 244.257812 17.574219 247.984375 C 17.082031 251.707031 16.695312 255.445312 16.414062 259.191406 C 16.136719 262.9375 15.960938 266.691406 15.894531 270.449219 C 15.828125 274.207031 15.867188 277.960938 16.011719 281.714844 C 16.160156 285.472656 16.410156 289.21875 16.769531 292.957031 C 17.128906 296.699219 17.59375 300.425781 18.164062 304.140625 C 18.734375 307.855469 19.410156 311.550781 20.191406 315.226562 C 20.972656 318.902344 21.859375 322.550781 22.847656 326.175781 C 23.835938 329.800781 24.925781 333.394531 26.117188 336.960938 C 27.308594 340.523438 28.601562 344.050781 29.996094 347.539062 C 31.386719 351.03125 32.878906 354.476562 34.464844 357.882812 C 36.054688 361.289062 37.738281 364.644531 39.519531 367.957031 C 120.695312 546.226562 384.9375 750.707031 412.78125 750.707031 C 440.628906 750.707031 704.855469 546.226562 785.992188 367.957031 C 789.863281 360.765625 793.277344 353.367188 796.226562 345.753906 C 799.179688 338.140625 801.652344 330.375 803.644531 322.457031 C 805.632812 314.539062 807.125 306.527344 808.121094 298.425781 C 809.117188 290.320312 809.609375 282.1875 809.597656 274.023438 Z M 809.597656 274.023438 " fill-opacity="1" fill-rule="nonzero"/></g></svg>