<?xml version="1.0" encoding="UTF-8"?><svg id="Logo_3" xmlns="http://www.w3.org/2000/svg" viewBox="0 0 1594 870.5"><defs><style>.cls-1,.cls-2{fill:#0a2240;}.cls-2{font-family:Obviously-Thin, Obviously;font-size:197.704px;font-weight:200;}.cls-3{letter-spacing:.2em;}.cls-4{letter-spacing:.144em;}</style></defs><text id="SOLUTIONS-thin" class="cls-2" transform="translate(25.258 853.163)"><tspan class="cls-3" x="0" y="0">SO</tspan><tspan class="cls-4" x="387.695" y="0">L</tspan><tspan class="cls-3" x="530.039" y="0">UTIONS</tspan></text><g id="WE-group"><polygon id="E-path" class="cls-1" points="1078.02 43.209 925.444 564.207 1281.926 564.207 1281.926 444.381 1100.317 444.381 1100.317 357.284 1254.407 357.284 1254.407 237.459 1100.317 237.459 1100.317 163.031 1281.926 163.031 1281.926 43.209 1078.02 43.209"/><polygon id="W-path" class="cls-1" points="909.714 43.209 827.837 340.18 820.398 378.136 815.185 340.18 737.037 43.209 617.214 43.209 539.067 340.18 533.113 378.136 526.403 340.18 444.538 43.209 309.086 43.209 461.661 564.207 600.832 564.207 670.8 311.899 676.754 275.425 683.452 311.899 753.41 564.207 892.591 564.207 1045.167 43.209 909.714 43.209"/></g></svg>