<?xml version="1.0" encoding="UTF-8"?><svg xmlns="http://www.w3.org/2000/svg" viewBox="0 0 1920 1080"><defs><style>.cls-1,.cls-2,.cls-3,.cls-4{fill:#0a2240;}.cls-2{font-size:197.704px;}.cls-2,.cls-3,.cls-4{font-family:Obviously-Thin, Obviously;font-weight:200;}.cls-5{letter-spacing:.2em;}.cls-6{letter-spacing:.2em;}.cls-7{letter-spacing:.2em;}.cls-8{letter-spacing:.2em;}.cls-9{letter-spacing:.2em;}.cls-10{letter-spacing:.144em;}.cls-11{letter-spacing:.144em;}.cls-12{letter-spacing:.144em;}.cls-3{font-size:189.693px;}.cls-4{font-size:112.681px;}</style></defs><g id="Logo_1"><text id="SOLUTIONS-thin" class="cls-3" transform="translate(-2199.154 1064.528)"><tspan class="cls-7" x="0" y="0">SO</tspan><tspan class="cls-11" x="371.985" y="0">L</tspan><tspan class="cls-6" x="508.562" y="0">UTIONS</tspan></text></g><g id="Logo_2"><text id="SOLUTIONS-thin-2" class="cls-4" transform="translate(1019.175 1013.484)"><tspan class="cls-8" x="0" y="0">SO</tspan><tspan class="cls-10" x="220.966" y="0">L</tspan><tspan class="cls-9" x="302.095" y="0">UTIONS</tspan></text><g id="WE-group"><polygon id="E-path" class="cls-1" points="1538.92 46 1294.762 879.72 1865.217 879.72 1865.217 687.971 1574.599 687.971 1574.599 548.593 1821.179 548.593 1821.179 356.846 1574.599 356.846 1574.599 237.743 1865.217 237.743 1865.217 46 1538.92 46"/><polygon id="W-path" class="cls-1" points="1269.591 46 1138.568 521.224 1126.664 581.963 1118.322 521.224 993.267 46 801.521 46 676.467 521.224 666.939 581.963 656.202 521.224 525.198 46 308.443 46 552.599 879.72 775.305 879.72 887.271 475.967 896.799 417.601 907.517 475.967 1019.467 879.72 1242.189 879.72 1486.347 46 1269.591 46"/></g></g><g id="Logo_3"><text id="SOLUTIONS-thin-3" class="cls-2" transform="translate(2609.258 971.163)"><tspan class="cls-5" x="0" y="0">SO</tspan><tspan class="cls-12" x="387.695" y="0">L</tspan><tspan class="cls-5" x="530.039" y="0">UTIONS</tspan></text></g></svg>