<?xml version="1.0" encoding="UTF-8"?><svg id="ring-of-text" xmlns="http://www.w3.org/2000/svg" viewBox="0 0 493.977 496.902"><defs><style>.cls-1{fill:#396afc;font-family:Obviously-Blck, Obviously;font-size:32px;}</style></defs><g id="textcirlce-we-solutions-est2020"><text class="cls-1" transform="translate(64.525 407.639) rotate(46.98)"><tspan x="0" y="0">•</tspan></text><text class="cls-1" transform="translate(84.257 427.504) rotate(41.157)"><tspan x="0" y="0"> </tspan></text><text class="cls-1" transform="translate(100.834 441.184) rotate(36.11)"><tspan x="0" y="0"> </tspan></text><text class="cls-1" transform="translate(118.777 453.753) rotate(29.26)"><tspan x="0" y="0">E</tspan></text><text class="cls-1" transform="translate(151.268 470.727) rotate(20.397)"><tspan x="0" y="0">S</tspan></text><text class="cls-1" transform="translate(187.468 482.865) rotate(11.755)"><tspan x="0" y="0">T</tspan></text><text class="cls-1" transform="translate(218.817 488.424) rotate(5.516)"><tspan x="0" y="0">.</tspan></text><text class="cls-1" transform="translate(241.642 489.931) rotate(.929)"><tspan x="0" y="0"> </tspan></text><text class="cls-1" transform="translate(263.672 489.699) rotate(-6.544)"><tspan x="0" y="0">2</tspan></text><text class="cls-1" transform="translate(300.763 484.358) rotate(-15.683)"><tspan x="0" y="0">0</tspan></text><text class="cls-1" transform="translate(338.669 472.395) rotate(-24.848)"><tspan x="0" y="0">2</tspan></text><text class="cls-1" transform="translate(372.201 455.672) rotate(-33.961)"><tspan x="0" y="0">0</tspan></text><text class="cls-1" transform="translate(403.965 432.537) rotate(-41.157)"><tspan x="0" y="0"> </tspan></text><text class="cls-1" transform="translate(419.916 417.863) rotate(-46.98)"><tspan x="0" y="0">•</tspan></text><text class="cls-1" transform="translate(55.196 354.202) rotate(-114.739)"><tspan x="0" y="0">W</tspan></text><text class="cls-1" transform="translate(37.81 313.437) rotate(-104.06)"><tspan x="0" y="0">O</tspan></text><text class="cls-1" transform="translate(29.597 276.659) rotate(-94.323)"><tspan x="0" y="0">R</tspan></text><text class="cls-1" transform="translate(27.707 240.095) rotate(-84.834)"><tspan x="0" y="0">K</tspan></text><text class="cls-1" transform="translate(32.257 203.27) rotate(-76.856)"><tspan x="0" y="0">I</tspan></text><text class="cls-1" transform="translate(38.017 179.942) rotate(-68.722)"><tspan x="0" y="0">N</tspan></text><text class="cls-1" transform="translate(52.444 145.479) rotate(-58.954)"><tspan x="0" y="0">G</tspan></text><text class="cls-1" transform="translate(72.918 114.035) rotate(-51.586)"><tspan x="0" y="0"> </tspan></text><text class="cls-1" transform="translate(84.931 99.286) rotate(-44.776)"><tspan x="0" y="0">E</tspan></text><text class="cls-1" transform="translate(108.793 76.581) rotate(-35.617)"><tspan x="0" y="0">N</tspan></text><text class="cls-1" transform="translate(139.693 55.572) rotate(-25.842)"><tspan x="0" y="0">N</tspan></text><text class="cls-1" transform="translate(173.849 40.21) rotate(-16.578)"><tspan x="0" y="0">E</tspan></text><text class="cls-1" transform="translate(205.58 31.493) rotate(-7.323)"><tspan x="0" y="0">A</tspan></text><text class="cls-1" transform="translate(241.964 27.668) rotate(2.08)"><tspan x="0" y="0">G</tspan></text><text class="cls-1" transform="translate(278.965 29.926) rotate(11.699)"><tspan x="0" y="0">R</tspan></text><text class="cls-1" transform="translate(314.151 38.057) rotate(21.311)"><tspan x="0" y="0">A</tspan></text><text class="cls-1" transform="translate(348.607 52.299) rotate(31.759)"><tspan x="0" y="0">M</tspan></text><text class="cls-1" transform="translate(384.112 76.185) rotate(39.789)"><tspan x="0" y="0"> </tspan></text><text class="cls-1" transform="translate(398.586 88.512) rotate(46.793)"><tspan x="0" y="0">S</tspan></text><text class="cls-1" transform="translate(421.59 114.1) rotate(56.184)"><tspan x="0" y="0">O</tspan></text><text class="cls-1" transform="translate(441.676 146.213) rotate(64.895)"><tspan x="0" y="0">L</tspan></text><text class="cls-1" transform="translate(453.292 172.119) rotate(73.55)"><tspan x="0" y="0">U</tspan></text><text class="cls-1" transform="translate(462.831 208.378) rotate(82.542)"><tspan x="0" y="0">T</tspan></text><text class="cls-1" transform="translate(465.884 239.625) rotate(89.071)"><tspan x="0" y="0">I</tspan></text><text class="cls-1" transform="translate(465.789 263.54) rotate(97.763)"><tspan x="0" y="0">O</tspan></text><text class="cls-1" transform="translate(459.777 300.718) rotate(107.627)"><tspan x="0" y="0">N</tspan></text><text class="cls-1" transform="translate(447.475 336.059) rotate(117.078)"><tspan x="0" y="0">S</tspan></text><text class="cls-1" transform="translate(430.557 366.542) rotate(124.129)"><tspan x="0" y="0"> </tspan></text><text class="cls-1" transform="translate(419.263 382.285) rotate(129.179)"><tspan x="0" y="0"> </tspan></text></g></svg>