<?xml version="1.0" encoding="UTF-8"?><svg xmlns="http://www.w3.org/2000/svg" viewBox="0 0 1080 1080"><defs><style>.cls-1{fill:#102a42;font-family:Obviously-Regu, Obviously;font-size:72px;opacity:.5;}.cls-2{fill:#f0f4f8;}.cls-3{fill:#627d98;}.cls-4{fill:rgba(130,154,177,.976);}</style></defs><g id="Back"><path id="Thinking" class="cls-3" d="m539.953,1079.917C241.682,1079.917-.115,838.115-.115,539.844-.115,433.203,30.792,333.786,84.135,250.052l13.547,8.12.073-.005c.115-.182.234-.37.354-.557l456.229,273.74-.047,462.859-.01,69.667c-.01,0-.026,0-.036.005l.036-.01v15.849l.073-.005-.073.01v-.005c-4.76.135-9.536.198-14.328.198Z"/><path id="Feeling" class="cls-4" d="m554.333,1079.724l-.01-15.849-.031-69.974v.385l-.229-462.12,435.828-261.495c.01.021.026.042.036.063l.078-.005,13.531-8.115c48.568,81.042,76.49,175.875,76.49,277.229,0,293.443-234.026,532.224-525.62,539.88h-.073Z"/><path id="Doing" class="cls-2" d="m554.313,532.156L97.682,258.177l.068-.005-.068-.005-13.547-8.115c.13-.198.255-.396.38-.599C180.443,99.318,348.573-.229,539.953-.229c196.922,0,369.224,105.391,463.583,262.844l-13.531,8.115h-.021l-435.672,261.427Z"/></g><g id="Text"><text id="Thinking-2" class="cls-1" transform="translate(354.074 937.21) rotate(-152.017)"><tspan x="0" y="0">T</tspan></text><text class="cls-1" transform="translate(303.25 909.818) rotate(-143.385)"><tspan x="0" y="0">H</tspan></text><text class="cls-1" transform="translate(245.14 864.134) rotate(-136.138)"><tspan x="0" y="0">I</tspan></text><text class="cls-1" transform="translate(218.88 839.395) rotate(-128.968)"><tspan x="0" y="0">N</tspan></text><text class="cls-1" transform="translate(173.851 781.797) rotate(-119.888)"><tspan x="0" y="0">K</tspan></text><text class="cls-1" transform="translate(142.492 724.264) rotate(-113.421)"><tspan x="0" y="0">I</tspan></text><text class="cls-1" transform="translate(127.812 691.303) rotate(-106.215)"><tspan x="0" y="0">N</tspan></text><text class="cls-1" transform="translate(108.52 620.856) rotate(-96.802)"><tspan x="0" y="0">G</tspan></text><text id="Feeling-2" class="cls-1" transform="translate(978.315 519.891) rotate(90.711)"><tspan x="0" y="0">F</tspan></text><text class="cls-1" transform="translate(976.647 584.061) rotate(99.281)"><tspan x="0" y="0">E</tspan></text><text class="cls-1" transform="translate(965.067 648.999) rotate(107.944)"><tspan x="0" y="0">E</tspan></text><text class="cls-1" transform="translate(943.616 711.512) rotate(116.084)"><tspan x="0" y="0">L</tspan></text><text class="cls-1" transform="translate(918.52 760.585) rotate(121.677)"><tspan x="0" y="0">I</tspan></text><text class="cls-1" transform="translate(899.868 791.516) rotate(128.863)"><tspan x="0" y="0">N</tspan></text><text class="cls-1" transform="translate(853.161 847.653) rotate(138.284)"><tspan x="0" y="0">G</tspan></text><text class="cls-1" transform="translate(413.874 119.648) rotate(-12.981)"><tspan x="0" y="0">D</tspan></text><text class="cls-1" transform="translate(482.517 104.77) rotate(-3.682)"><tspan x="0" y="0">O</tspan></text><text class="cls-1" transform="translate(554.898 102.054) rotate(3.469)"><tspan x="0" y="0">I</tspan></text><text class="cls-1" transform="translate(590.944 103.876) rotate(10.668)"><tspan x="0" y="0">N</tspan></text><text class="cls-1" transform="translate(662.51 118.52) rotate(20.019)"><tspan x="0" y="0">G</tspan></text></g></svg>