<?xml version="1.0" encoding="UTF-8"?><svg id="ring-of-text" xmlns="http://www.w3.org/2000/svg" viewBox="0 0 512 512"><defs><style>.cls-1{fill:#2948ff;}.cls-2{fill:#396afc;font-family:Obviously-Blck, Obviously;font-size:32px;}</style></defs><path id="universal-access" class="cls-1" d="m0,256C0,114.615,114.615,0,256,0s256,114.615,256,256-114.615,256-256,256S0,397.385,0,256Zm161.5-86.1c-12.2-5.2-26.3.4-31.5,12.6s.4,26.3,12.6,31.5l11.9,5.1c17.3,7.4,35.2,12.9,53.6,16.3v50.1c0,4.3-.7,8.6-2.1,12.6l-28.7,86.1c-4.2,12.6,2.6,26.2,15.2,30.4s26.2-2.6,30.4-15.2l24.4-73.2c1.3-3.8,4.8-6.4,8.8-6.4s7.6,2.6,8.8,6.4l24.4,73.2c4.2,12.6,17.8,19.4,30.4,15.2s19.4-17.8,15.2-30.4l-28.7-86.1c-1.4-4.1-2.1-8.3-2.1-12.6v-50c18.4-3.5,36.3-8.9,53.6-16.3l11.9-5.1c12.2-5.2,17.8-19.3,12.6-31.5s-19.3-17.8-31.5-12.6l-12,5c-26.1,11.2-54.2,17-82.7,17s-56.5-5.8-82.7-17l-11.9-5.1h.1Zm94.5-9.9c22.091,0,40-17.909,40-40s-17.909-40-40-40-40,17.909-40,40,17.909,40,40,40Z"/><g id="textcirlce-we-solutions-est2020"><text class="cls-2" transform="translate(73.535 416.641) rotate(46.98)"><tspan x="0" y="0">•</tspan></text><text class="cls-2" transform="translate(93.266 436.506) rotate(41.157)"><tspan x="0" y="0"> </tspan></text><text class="cls-2" transform="translate(109.844 450.186) rotate(36.11)"><tspan x="0" y="0"> </tspan></text><text class="cls-2" transform="translate(127.787 462.755) rotate(29.26)"><tspan x="0" y="0">E</tspan></text><text class="cls-2" transform="translate(160.277 479.729) rotate(20.397)"><tspan x="0" y="0">S</tspan></text><text class="cls-2" transform="translate(196.478 491.867) rotate(11.755)"><tspan x="0" y="0">T</tspan></text><text class="cls-2" transform="translate(227.827 497.426) rotate(5.516)"><tspan x="0" y="0">.</tspan></text><text class="cls-2" transform="translate(250.651 498.933) rotate(.929)"><tspan x="0" y="0"> </tspan></text><text class="cls-2" transform="translate(272.682 498.701) rotate(-6.544)"><tspan x="0" y="0">2</tspan></text><text class="cls-2" transform="translate(309.772 493.36) rotate(-15.683)"><tspan x="0" y="0">0</tspan></text><text class="cls-2" transform="translate(347.679 481.396) rotate(-24.848)"><tspan x="0" y="0">2</tspan></text><text class="cls-2" transform="translate(381.21 464.674) rotate(-33.961)"><tspan x="0" y="0">0</tspan></text><text class="cls-2" transform="translate(412.975 441.539) rotate(-41.157)"><tspan x="0" y="0"> </tspan></text><text class="cls-2" transform="translate(428.925 426.865) rotate(-46.98)"><tspan x="0" y="0">•</tspan></text><text class="cls-2" transform="translate(64.205 363.204) rotate(-114.739)"><tspan x="0" y="0">W</tspan></text><text class="cls-2" transform="translate(46.819 322.438) rotate(-104.06)"><tspan x="0" y="0">O</tspan></text><text class="cls-2" transform="translate(38.606 285.661) rotate(-94.323)"><tspan x="0" y="0">R</tspan></text><text class="cls-2" transform="translate(36.716 249.097) rotate(-84.834)"><tspan x="0" y="0">K</tspan></text><text class="cls-2" transform="translate(41.266 212.272) rotate(-76.856)"><tspan x="0" y="0">I</tspan></text><text class="cls-2" transform="translate(47.026 188.944) rotate(-68.722)"><tspan x="0" y="0">N</tspan></text><text class="cls-2" transform="translate(61.453 154.48) rotate(-58.954)"><tspan x="0" y="0">G</tspan></text><text class="cls-2" transform="translate(81.927 123.037) rotate(-51.586)"><tspan x="0" y="0"> </tspan></text><text class="cls-2" transform="translate(93.94 108.288) rotate(-44.776)"><tspan x="0" y="0">E</tspan></text><text class="cls-2" transform="translate(117.802 85.583) rotate(-35.617)"><tspan x="0" y="0">N</tspan></text><text class="cls-2" transform="translate(148.702 64.574) rotate(-25.842)"><tspan x="0" y="0">N</tspan></text><text class="cls-2" transform="translate(182.858 49.212) rotate(-16.578)"><tspan x="0" y="0">E</tspan></text><text class="cls-2" transform="translate(214.589 40.495) rotate(-7.323)"><tspan x="0" y="0">A</tspan></text><text class="cls-2" transform="translate(250.973 36.67) rotate(2.08)"><tspan x="0" y="0">G</tspan></text><text class="cls-2" transform="translate(287.975 38.928) rotate(11.699)"><tspan x="0" y="0">R</tspan></text><text class="cls-2" transform="translate(323.16 47.059) rotate(21.311)"><tspan x="0" y="0">A</tspan></text><text class="cls-2" transform="translate(357.616 61.301) rotate(31.759)"><tspan x="0" y="0">M</tspan></text><text class="cls-2" transform="translate(393.121 85.187) rotate(39.789)"><tspan x="0" y="0"> </tspan></text><text class="cls-2" transform="translate(407.596 97.514) rotate(46.793)"><tspan x="0" y="0">S</tspan></text><text class="cls-2" transform="translate(430.6 123.102) rotate(56.184)"><tspan x="0" y="0">O</tspan></text><text class="cls-2" transform="translate(450.686 155.215) rotate(64.895)"><tspan x="0" y="0">L</tspan></text><text class="cls-2" transform="translate(462.301 181.121) rotate(73.55)"><tspan x="0" y="0">U</tspan></text><text class="cls-2" transform="translate(471.84 217.38) rotate(82.542)"><tspan x="0" y="0">T</tspan></text><text class="cls-2" transform="translate(474.894 248.626) rotate(89.071)"><tspan x="0" y="0">I</tspan></text><text class="cls-2" transform="translate(474.798 272.542) rotate(97.763)"><tspan x="0" y="0">O</tspan></text><text class="cls-2" transform="translate(468.786 309.72) rotate(107.627)"><tspan x="0" y="0">N</tspan></text><text class="cls-2" transform="translate(456.484 345.061) rotate(117.078)"><tspan x="0" y="0">S</tspan></text><text class="cls-2" transform="translate(439.566 375.544) rotate(124.129)"><tspan x="0" y="0"> </tspan></text><text class="cls-2" transform="translate(428.272 391.287) rotate(129.179)"><tspan x="0" y="0"> </tspan></text></g></svg>