<?xml version="1.0" encoding="UTF-8"?><svg id="WE_ONLY" xmlns="http://www.w3.org/2000/svg" viewBox="0 0 1651 815.965"><defs><style>.cls-1{fill:#0a2240;}</style></defs><polygon id="WE-icon-E" class="cls-1" points="952.851 4 827.126 460.004 815.705 518.286 807.7 460.004 687.703 4 503.712 4 383.715 460.004 374.573 518.286 364.271 460.004 238.565 4 30.577 4 264.858 804 478.557 804 585.994 416.577 595.136 360.572 605.421 416.577 712.842 804 926.557 804 1160.84 4 952.851 4"/><polygon id="WE-icon-W" class="cls-1" points="1210.899 4 976.617 804 1524 804 1524 620 1245 620 1245 487 1482 487 1482 302 1245 302 1245 188 1524 188 1524 4 1210.899 4"/></svg>