<?xml version="1.0" encoding="UTF-8"?><svg id="Logo_2" xmlns="http://www.w3.org/2000/svg" viewBox="0 0 1651 1080"><defs><style>.cls-1{fill:none;isolation:isolate;}.cls-2{fill:#0a2240;}</style></defs><polygon id="W-path" class="cls-2" points="961.273 0 830.206 475.384 818.298 536.143 809.953 475.384 684.856 0 493.046 0 367.95 475.384 358.419 536.143 347.678 475.384 216.63 0 -.198 0 244.04 834 466.821 834 578.825 430.111 588.356 371.726 599.077 430.111 711.065 834 933.862 834 1178.102 0 961.273 0"/><polygon id="E-path" class="cls-2" points="1230.593 0 986.353 834 1557 834 1557 642 1266 642 1266 503 1513 503 1513 311 1266 311 1266 192 1557 192 1557 0 1230.593 0"/><g class="cls-1"><path class="cls-2" d="m726.283,937.848c-.113,1.578-.227,3.381-.227,4.508,0,13.409,9.24,20.621,27.834,20.621,17.691,0,25.805-5.972,25.805-17.466,0-10.255-6.422-15.551-28.734-18.48-21.974-2.705-29.975-10.029-29.975-23.552,0-14.536,11.043-21.974,30.876-21.974,22.087,0,32.229,8.902,32.229,24.34,0,2.592-.112,4.17-.226,6.536h-3.268c-1.24,0-2.592,0-3.268.112.111-2.028.111-4.507.111-5.972,0-11.832-8.113-19.044-25.691-19.044-15.551,0-23.89,5.07-23.89,15.889,0,8.789,3.944,15.212,26.932,18.143,23.552,3.268,31.552,10.254,31.552,23.889,0,15.664-11.493,23.552-32.34,23.552-23.214,0-34.934-8.902-34.934-25.692,0-2.028.113-3.381.338-5.521.902.112,2.029.112,3.269.112h3.606Z"/><path class="cls-2" d="m864.43,968.949c-24.453,0-39.665-15.663-39.665-44.061s15.663-43.384,39.665-43.384,39.553,14.875,39.553,43.384-15.213,44.061-39.553,44.061Zm32.566-43.835c0-25.129-12.733-37.299-32.566-37.299s-32.679,12.17-32.679,37.299,12.847,37.524,32.679,37.524,32.566-12.508,32.566-37.524Z"/><path class="cls-2" d="m953.896,882.97c-.45,6.986-.676,21.748-.676,42.032,0,13.297.112,28.96.226,36.06,12.282,0,28.848,0,42.031-.226v6.648h-49.356c0-7.212.226-24.228.226-42.257,0-21.749.226-34.257-.226-42.258h7.775Z"/><path class="cls-2" d="m1095.539,882.97c-.339,6.648-.339,13.41-.339,23.552,0,7.437.339,18.593.339,28.734,0,21.974-10.818,33.693-33.693,33.693s-33.693-11.72-33.693-33.693c0-10.142.338-21.298.338-28.734,0-10.142-.113-17.016-.338-23.552h7.662c-.562,10.367-.676,38.426-.676,51.498,0,19.494,9.578,28.059,26.819,28.059s26.594-8.564,26.594-28.059c0-13.072-.112-41.356-.45-51.498h7.438Z"/><path class="cls-2" d="m1198.639,882.97v6.311c-10.367-.226-20.621-.338-28.96-.338,0,35.158-.112,70.654.226,78.542h-7.438c.338-7.775.338-43.271.338-78.542-8.226,0-18.593.112-29.072.338v-6.311h64.906Z"/><path class="cls-2" d="m1236.947,967.484c.225-12.058.338-24.228.338-42.257s-.113-30.313-.338-42.258h7.775c-.451,11.832-.338,24.002-.338,42.258,0,17.804-.113,30.087.338,42.257h-7.775Z"/><path class="cls-2" d="m1326.416,968.949c-24.453,0-39.666-15.663-39.666-44.061s15.664-43.384,39.666-43.384,39.553,14.875,39.553,43.384-15.213,44.061-39.553,44.061Zm32.566-43.835c0-25.129-12.734-37.299-32.566-37.299s-32.68,12.17-32.68,37.299,12.847,37.524,32.68,37.524,32.566-12.508,32.566-37.524Z"/><path class="cls-2" d="m1475.492,882.97c-.225,10.255-.338,24.228-.338,42.145,0,18.594,0,31.102.113,42.37h-7.1c-5.409-8.789-26.819-38.651-43.385-61.414-3.831-5.521-7.549-11.381-10.367-16.34l-.225.113c.451,6.648.562,13.522.562,19.607,0,29.749,0,50.032.339,58.033h-6.987c.113-10.705.227-24.228.227-42.257,0-17.918,0-32.454-.227-42.258h9.016c4.732,7.663,27.383,38.088,42.596,59.611,3.042,4.395,6.761,10.592,9.465,15.663l.338-.112c-.338-6.311-.562-12.621-.562-18.143-.113-22.65-.338-48.117-.789-57.02h7.324Z"/><path class="cls-2" d="m1526.646,937.848c-.113,1.578-.227,3.381-.227,4.508,0,13.409,9.24,20.621,27.834,20.621,17.691,0,25.805-5.972,25.805-17.466,0-10.255-6.422-15.551-28.734-18.48-21.974-2.705-29.975-10.029-29.975-23.552,0-14.536,11.043-21.974,30.876-21.974,22.087,0,32.229,8.902,32.229,24.34,0,2.592-.112,4.17-.226,6.536h-3.268c-1.24,0-2.592,0-3.268.112.111-2.028.111-4.507.111-5.972,0-11.832-8.113-19.044-25.691-19.044-15.551,0-23.89,5.07-23.89,15.889,0,8.789,3.944,15.212,26.932,18.143,23.552,3.268,31.552,10.254,31.552,23.889,0,15.664-11.493,23.552-32.34,23.552-23.214,0-34.934-8.902-34.934-25.692,0-2.028.113-3.381.338-5.521.902.112,2.029.112,3.269.112h3.606Z"/></g></svg>