<?xml version="1.0" encoding="UTF-8"?><svg id="Logo_1" xmlns="http://www.w3.org/2000/svg" viewBox="0 0 1651 1080"><defs><style>.cls-1{fill:#0a2240;}</style></defs><g id="WE-group"><polygon id="E-path" class="cls-1" points="1286.114 116 1037.774 964 1618 964 1618 769 1322 769 1322 627 1573 627 1573 432 1322 432 1322 311 1618 311 1618 116 1286.114 116"/><polygon id="W-path" class="cls-1" points="1011.286 116 878.019 599.364 865.912 661.143 857.427 599.364 730.23 116 535.2 116 408.003 599.364 398.313 661.143 387.392 599.364 254.144 116 33.677 116 282.014 964 508.535 964 622.418 553.332 632.109 493.966 643.011 553.332 756.879 964 983.416 964 1231.755 116 1011.286 116"/></g></svg>