<?xml version="1.0" encoding="UTF-8"?><svg id="Logo_1" xmlns="http://www.w3.org/2000/svg" viewBox="0 0 1651 1080"><defs><style>.cls-1{fill:#0a2240;}</style></defs><g id="WE-group"><polygon id="E-path" class="cls-1" points="1211.147 4.362 976.918 804.181 1524.177 804.181 1524.177 620.229 1245.376 620.229 1245.376 486.519 1481.93 486.519 1481.93 302.569 1245.376 302.569 1245.376 188.309 1524.177 188.309 1524.177 4.362 1211.147 4.362"/><polygon id="W-path" class="cls-1" points="952.77 4.362 827.074 460.263 815.655 518.532 807.652 460.263 687.682 4.362 503.733 4.362 383.763 460.263 374.623 518.532 364.323 460.263 238.646 4.362 30.705 4.362 264.933 804.181 478.583 804.181 585.996 416.846 595.136 360.853 605.419 416.846 712.816 804.181 926.482 804.181 1160.712 4.362 952.77 4.362"/></g></svg>